<?xml version="1.0" encoding="UTF-8"?>
<svg version="1.1" xmlns="http://www.w3.org/2000/svg" width="500" height="500">
<path d="M0 0 C165 0 330 0 500 0 C500 165 500 330 500 500 C335 500 170 500 0 500 C0 335 0 170 0 0 Z " fill="#FEFEFE" transform="translate(0,0)"/>
<path d="M0 0 C0 0.66 0 1.32 0 2 C1.32 2.66 2.64 3.32 4 4 C4 4.66 4 5.32 4 6 C4.66 6 5.32 6 6 6 C7.15082685 8.24756784 8.29576858 10.49781748 9.4375 12.75 C9.76298828 13.38421875 10.08847656 14.0184375 10.42382812 14.671875 C15.13119302 23.98954571 15.17871585 32.84845514 12.25 42.875 C10.68694063 47.46614651 8.99639011 51.14749843 6 55 C1.53514415 60.8268417 -1.72206323 65.88507932 -3.4921875 73.06640625 C-4 75 -4 75 -5 76 C-7.78823738 76.1134515 -10.55077345 76.16418263 -13.33984375 76.16796875 C-14.17713516 76.17129715 -15.01442657 76.17462555 -15.87709045 76.17805481 C-17.65169728 76.18312756 -19.42631367 76.18546303 -21.20092773 76.18530273 C-23.92252256 76.18748797 -26.64371143 76.20563633 -29.36523438 76.22460938 C-31.08593611 76.22754342 -32.80663977 76.22952814 -34.52734375 76.23046875 C-35.34508774 76.23765427 -36.16283173 76.24483978 -37.00535583 76.25224304 C-42.77117796 76.22882204 -42.77117796 76.22882204 -45 74 C-45.226875 72.700625 -45.45375 71.40125 -45.6875 70.0625 C-47.13316971 62.90354358 -51.51093251 56.98871455 -56.12109375 51.453125 C-57.93036102 49.09092158 -58.8288348 47.31920135 -59.6875 44.5 C-59.91824219 43.7678125 -60.14898437 43.035625 -60.38671875 42.28125 C-63.68260221 30.02140326 -61.95725298 19.83037404 -55.75 8.8125 C-55.1725 7.884375 -54.595 6.95625 -54 6 C-53.34 6 -52.68 6 -52 6 C-51.34 4.68 -50.68 3.36 -50 2 C-49.34 2 -48.68 2 -48 2 C-48 1.34 -48 0.68 -48 0 C-46.25318707 -0.98484108 -44.5024149 -1.96266187 -42.75 -2.9375 C-41.77546875 -3.48277344 -40.8009375 -4.02804688 -39.796875 -4.58984375 C-27.53334896 -10.77299026 -10.93054527 -7.38393218 0 0 Z " fill="#F2FBFC" transform="translate(108,194)"/>
<path d="M0 0 C3.3 0 6.6 0 10 0 C18.72551414 27.94514191 18.72551414 27.94514191 22 41 C26.75018468 27.50745415 30.52566545 13.87269755 34 0 C37.96 0 41.92 0 46 0 C46.33209473 1.26106567 46.33209473 1.26106567 46.67089844 2.54760742 C47.51123102 5.7333948 48.3539752 8.91852545 49.19824219 12.10327148 C49.5598538 13.46923536 49.92056381 14.83543832 50.28027344 16.2019043 C52.65103009 25.20481956 55.18491128 34.12375625 58 43 C61.37790205 31.46160438 64.61332835 19.91121878 67.43823242 8.22363281 C68.90452812 2.19094377 68.90452812 2.19094377 70 0 C73.3 0 76.6 0 80 0 C79.43952507 7.01312221 77.93510089 13.28642265 75.875 20 C75.24476467 22.10376897 74.61590616 24.20795078 73.98828125 26.3125 C73.6629541 27.39917969 73.33762695 28.48585937 73.00244141 29.60546875 C71.29520558 35.38661997 69.67900856 41.19294598 68.0625 47 C67.75618652 48.09828125 67.44987305 49.1965625 67.13427734 50.328125 C66.42168662 52.8850923 65.71065809 55.44249489 65 58 C61.04 58 57.08 58 53 58 C50.19292335 50.89403553 48.02711382 43.63993516 45.875 36.3125 C45.33552734 34.49782227 45.33552734 34.49782227 44.78515625 32.64648438 C41.89951509 22.87096965 41.89951509 22.87096965 41 18 C39.0324864 20.9512704 38.30064613 23.02650067 37.37890625 26.41015625 C37.08306641 27.48330078 36.78722656 28.55644531 36.48242188 29.66210938 C36.17884766 30.78423828 35.87527344 31.90636719 35.5625 33.0625 C29.62906372 54.74187256 29.62906372 54.74187256 28 58 C24.04 58 20.08 58 16 58 C11.91477819 44.80063591 7.97896896 31.57395853 4.31030273 18.25219727 C3.22134555 14.30741062 2.13969544 10.40361515 0.80078125 6.53515625 C0 4 0 4 0 0 Z " fill="#3AB6BC" transform="translate(258,212)"/>
<path d="M0 0 C0 0.66 0 1.32 0 2 C1.32 2.66 2.64 3.32 4 4 C4 4.66 4 5.32 4 6 C4.66 6 5.32 6 6 6 C7.15082685 8.24756784 8.29576858 10.49781748 9.4375 12.75 C9.76298828 13.38421875 10.08847656 14.0184375 10.42382812 14.671875 C15.13119302 23.98954571 15.17871585 32.84845514 12.25 42.875 C10.68694063 47.46614651 8.99639011 51.14749843 6 55 C1.53514415 60.8268417 -1.72206323 65.88507932 -3.4921875 73.06640625 C-4 75 -4 75 -5 76 C-7.78823738 76.1134515 -10.55077345 76.16418263 -13.33984375 76.16796875 C-14.17713516 76.17129715 -15.01442657 76.17462555 -15.87709045 76.17805481 C-17.65169728 76.18312756 -19.42631367 76.18546303 -21.20092773 76.18530273 C-23.92252256 76.18748797 -26.64371143 76.20563633 -29.36523438 76.22460938 C-31.08593611 76.22754342 -32.80663977 76.22952814 -34.52734375 76.23046875 C-35.34508774 76.23765427 -36.16283173 76.24483978 -37.00535583 76.25224304 C-42.77117796 76.22882204 -42.77117796 76.22882204 -45 74 C-45.226875 72.700625 -45.45375 71.40125 -45.6875 70.0625 C-47.13316971 62.90354358 -51.51093251 56.98871455 -56.12109375 51.453125 C-57.93036102 49.09092158 -58.8288348 47.31920135 -59.6875 44.5 C-59.91824219 43.7678125 -60.14898437 43.035625 -60.38671875 42.28125 C-63.68260221 30.02140326 -61.95725298 19.83037404 -55.75 8.8125 C-55.1725 7.884375 -54.595 6.95625 -54 6 C-53.34 6 -52.68 6 -52 6 C-51.34 4.68 -50.68 3.36 -50 2 C-49.34 2 -48.68 2 -48 2 C-48 1.34 -48 0.68 -48 0 C-46.25318707 -0.98484108 -44.5024149 -1.96266187 -42.75 -2.9375 C-41.77546875 -3.48277344 -40.8009375 -4.02804688 -39.796875 -4.58984375 C-27.53334896 -10.77299026 -10.93054527 -7.38393218 0 0 Z M-40 4 C-41.051875 4.556875 -42.10375 5.11375 -43.1875 5.6875 C-48.27911106 9.87393576 -52.01191061 15.70742348 -54 22 C-54.9550981 32.33949221 -54.74333816 41.90000771 -48.12890625 50.40625 C-46.82254518 51.96696871 -45.48215202 53.50034514 -44.09765625 54.9921875 C-40.93212078 59.53122346 -39.12840268 64.89183357 -37 70 C-28.09 70 -19.18 70 -10 70 C-8.68 66.37 -7.36 62.74 -6 59 C-3.74609375 55.6171875 -3.74609375 55.6171875 -1.4375 52.875 C6.08674298 43.19743748 7.30553813 34.03996278 6 22 C4.80786617 18.27221643 3.19850371 15.22447211 1 12 C0.401875 11.071875 -0.19625 10.14375 -0.8125 9.1875 C-7.22055691 2.77944309 -14.76656535 -0.27347436 -23.8125 -0.375 C-30.13433028 -0.28173801 -34.59581116 0.78881533 -40 4 Z " fill="#3FB6B9" transform="translate(108,194)"/>
<path d="M0 0 C5.94378276 2.69401247 8.86813436 6.23909872 11.4375 12.25 C13.79620689 19.3938996 13.03393391 24.72974298 9.7421875 31.3359375 C6.57240198 37.12135023 3.49728155 39.43443583 -2.66015625 41.640625 C-9.0355872 43.365202 -14.25353686 43.28575266 -20.1875 40.25 C-25.07283173 37.18587851 -28.12962781 33.92504782 -30.6875 28.6875 C-32.17521026 21.51944148 -32.45803496 14.64746629 -28.71484375 8.16015625 C-21.34911389 -1.65365875 -11.50823149 -4.13469395 0 0 Z " fill="#203258" transform="translate(210.375,228.625)"/>
<path d="M0 0 C4.94674073 3.84746501 6.43945194 8.16721237 7.8125 14.1875 C7.8125 16.1675 7.8125 18.1475 7.8125 20.1875 C-2.7475 20.1875 -13.3075 20.1875 -24.1875 20.1875 C-21.30923199 28.82610517 -21.30923199 28.82610517 -17.1875 31.1875 C-13.01884374 31.78859837 -9.33763145 31.87757887 -5.6875 29.6875 C-1.97341352 27.45904811 1.58335184 27.93872658 5.8125 28.1875 C4.14967685 33.62946669 1.0502727 35.65659131 -3.5 38.76953125 C-8.25651763 41.27914738 -12.96003599 40.97422033 -18.1875 40.1875 C-24.10173267 37.9574095 -29.35514497 34.36518598 -32.41015625 28.72265625 C-34.53786855 21.78353422 -34.57370938 13.24560606 -31.5625 6.5625 C-24.28160361 -5.27217258 -11.4293717 -6.4990545 0 0 Z " fill="#32B7BC" transform="translate(436.1875,230.8125)"/>
<path d="M0 0 C11.88 0 23.76 0 36 0 C36 2.97 36 5.94 36 9 C27.75 9 19.5 9 11 9 C11 14.28 11 19.56 11 25 C18.26 25 25.52 25 33 25 C33 27.97 33 30.94 33 34 C25.74 34 18.48 34 11 34 C11 41.92 11 49.84 11 58 C7.37 58 3.74 58 0 58 C0 38.86 0 19.72 0 0 Z " fill="#1A315D" transform="translate(140,212)"/>
<path d="M0 0 C11.22 0 22.44 0 34 0 C34 9 34 9 32.49609375 11.56640625 C31.81675781 12.22511719 31.13742187 12.88382813 30.4375 13.5625 C29.70789063 14.30371094 28.97828125 15.04492188 28.2265625 15.80859375 C27.49179687 16.53175781 26.75703125 17.25492188 26 18 C24.75686009 19.36237986 23.52679661 20.73685035 22.3125 22.125 C21.79300781 22.70507812 21.27351563 23.28515625 20.73828125 23.8828125 C18.34029078 26.803511 16.1964989 29.92490153 14 33 C20.93 33 27.86 33 35 33 C35 35.97 35 38.94 35 42 C23.45 42 11.9 42 0 42 C0 33 0 33 2.375 29.4375 C5 27 5 27 7 27 C7.21527344 26.46632812 7.43054688 25.93265625 7.65234375 25.3828125 C9.49576844 22.12342392 12.00013373 19.5718823 14.5625 16.875 C18.18633907 13.23596593 18.18633907 13.23596593 21 9 C14.07 9 7.14 9 0 9 C0 6.03 0 3.06 0 0 Z " fill="#42AEB1" transform="translate(363,228)"/>
<path d="M0 0 C7.14893617 -0.56737589 7.14893617 -0.56737589 11 2 C11.495 3.010625 11.99 4.02125 12.5 5.0625 C13.71817863 8.29555353 13.71817863 8.29555353 17 9 C17 9.66 17 10.32 17 11 C18.32 11.66 19.64 12.32 21 13 C21.027193 14.58323688 21.04648306 16.16661062 21.0625 17.75 C21.07410156 18.63171875 21.08570312 19.5134375 21.09765625 20.421875 C21.00775169 22.79535529 20.58196627 24.7147178 20 27 C20.0825 28.134375 20.165 29.26875 20.25 30.4375 C20 34 20 34 17.6875 36.9375 C15 39 15 39 12 39 C11.5978125 40.175625 11.5978125 40.175625 11.1875 41.375 C10 44 10 44 7 46 C4 46.4375 4 46.4375 1 46 C-2.59276325 41.71861062 -2.42471118 37.61399307 -2.36328125 32.3046875 C-2.36377975 31.47542755 -2.36427826 30.6461676 -2.36479187 29.79177856 C-2.36245844 28.04524326 -2.35277315 26.29870415 -2.33618164 24.55224609 C-2.31251746 21.87697392 -2.31563496 19.20269452 -2.32226562 16.52734375 C-2.31669075 14.82811905 -2.30958208 13.12889855 -2.30078125 11.4296875 C-2.30169266 10.62965302 -2.30260406 9.82961853 -2.30354309 9.00534058 C-2.25423534 5.15454333 -2.18512262 3.27768394 0 0 Z " fill="#52B4B8" transform="translate(87,203)"/>
<path d="M0 0 C1.6745246 3.34904921 1.18475107 7.12080251 1.203125 10.8046875 C1.20882507 11.68021271 1.21452515 12.55573792 1.22039795 13.45779419 C1.22985248 15.31218251 1.23638373 17.16658767 1.24023438 19.02099609 C1.24993753 21.85674389 1.28095525 24.69176622 1.3125 27.52734375 C1.31903029 29.32812069 1.32428066 31.12890282 1.328125 32.9296875 C1.3404718 33.77771942 1.3528186 34.62575134 1.36553955 35.4994812 C1.35218539 39.03291167 1.33263102 41.37192577 -0.34082031 44.53173828 C-2 46 -2 46 -4.875 46.5625 C-8.96605674 45.82610979 -10.42350056 44.1827346 -13 41 C-13 40.34 -13 39.68 -13 39 C-13.78375 38.7525 -14.5675 38.505 -15.375 38.25 C-18.4449643 36.78811224 -18.82292534 36.09871748 -20 33 C-20.16015625 30.7109375 -20.16015625 30.7109375 -20.0625 28.375 C-19.88561667 25.05753853 -19.88561667 25.05753853 -21 22 C-21.57740169 14.95569935 -21.57740169 14.95569935 -19.1875 11 C-17 9 -17 9 -14 9 C-13.7525 8.071875 -13.505 7.14375 -13.25 6.1875 C-10.57143505 -0.64284064 -6.61728499 -0.33086425 0 0 Z " fill="#4CAFB1" transform="translate(81,203)"/>
<path d="M0 0 C3.3 0 6.6 0 10 0 C13.82272994 9.38791353 14.74626085 18.00267754 15 28 C15.66 28 16.32 28 17 28 C17.12117188 28.65226562 17.24234375 29.30453125 17.3671875 29.9765625 C18.28943989 34.78646342 19.30167277 39.39025465 21 44 C22.32 44 23.64 44 25 44 C25.33 43.01 25.66 42.02 26 41 C26.5259375 40.071875 26.5259375 40.071875 27.0625 39.125 C28.17123324 36.61187131 28.1509995 34.71799097 28 32 C29.32 31.67 30.64 31.34 32 31 C31.67 30.01 31.34 29.02 31 28 C30.93197033 26.27204648 30.91504355 24.54164635 30.9375 22.8125 C30.94652344 21.91144531 30.95554687 21.01039063 30.96484375 20.08203125 C30.97644531 19.39496094 30.98804688 18.70789063 31 18 C31.66 17.67 32.32 17.34 33 17 C35.79678105 21.19517158 35.49282924 25.18373485 34.64941406 30.00341797 C34.18787041 31.99698877 33.67146078 33.96557304 33.125 35.9375 C31.94256241 40.37821007 30.80356663 44.79710989 29.9375 49.3125 C28.75465313 53.96503102 28.75465313 53.96503102 26 56 C23.73828125 56.29296875 23.73828125 56.29296875 21.3125 56.1875 C20.10013672 56.14689453 20.10013672 56.14689453 18.86328125 56.10546875 C18.24839844 56.07066406 17.63351562 56.03585937 17 56 C15.57499941 52.00999834 14.59924224 48.19469571 14 44 C13.34 44 12.68 44 12 44 C8.53628998 33.3371181 5.09888472 22.66877787 2.0625 11.875 C1.85149658 11.13652832 1.64049316 10.39805664 1.4230957 9.63720703 C0.48942379 6.25824164 0 3.5381488 0 0 Z M38 2 C40.03144641 2.93446535 42.03533587 3.93224776 44 5 C44 5.99 44 6.98 44 8 C41.69 8 39.38 8 37 8 C37.350625 8.7425 37.70125 9.485 38.0625 10.25 C39.04509293 13.1322726 39.0326802 14.21176345 38 17 C36.68 17 35.36 17 34 17 C32.51834497 14.03668994 33.51641892 12.10295983 34.3125 8.9375 C34.57675781 7.85339844 34.84101563 6.76929688 35.11328125 5.65234375 C36 3 36 3 38 2 Z " fill="#2FB9C1" transform="translate(258,212)"/>
<path d="M0 0 C0 2.97 0 5.94 0 9 C-2.24609375 9.48828125 -4.4921875 9.9765625 -6.73828125 10.46484375 C-9.145401 10.99886159 -9.145401 10.99886159 -12 12 C-15.49055429 18.26346757 -15.52582735 25.58286061 -15.6875 32.5625 C-15.72166016 33.57119141 -15.75582031 34.57988281 -15.79101562 35.61914062 C-15.87262432 38.07905977 -15.93800673 40.53950838 -16 43 C-18.97 43 -21.94 43 -25 43 C-25 29.14 -25 15.28 -25 1 C-22.03 1 -19.06 1 -16 1 C-16 2.98 -16 4.96 -16 7 C-15.34 7 -14.68 7 -14 7 C-13.7525 6.401875 -13.505 5.80375 -13.25 5.1875 C-9.94571081 -0.59500607 -6.11128642 -0.30556432 0 0 Z " fill="#223259" transform="translate(255,227)"/>
<path d="M0 0 C4.30919646 2.11235121 6.92519657 4.32911434 8.59375 8.9375 C9.65208683 14.31059467 8.99784069 19.28941596 6.25 24 C3.79621984 26.18113792 2.19410865 27.23949794 -1 28 C-5.39675307 27.72520293 -8.48535872 26.65972853 -12 24 C-15.41003082 20.1196201 -15.45774436 16.32373735 -15.28125 11.3671875 C-14.71813862 6.62766674 -12.78683591 4.64695397 -9.1875 1.6875 C-5.61950078 -0.20144076 -3.96406718 -0.66067786 0 0 Z " fill="#F7F9FA" transform="translate(204,235)"/>
<path d="M0 0 C4.94674073 3.84746501 6.43945194 8.16721237 7.8125 14.1875 C7.8125 16.1675 7.8125 18.1475 7.8125 20.1875 C-2.7475 20.1875 -13.3075 20.1875 -24.1875 20.1875 C-24.1875 19.8575 -24.1875 19.5275 -24.1875 19.1875 C-14.6175 18.8575 -5.0475 18.5275 4.8125 18.1875 C5.93775742 14.81172775 5.69078528 13.90891708 4.625 10.625 C4.38394531 9.83996094 4.14289063 9.05492187 3.89453125 8.24609375 C2.56791744 5.72217507 1.36255779 5.31570739 -1.1875 4.1875 C-1.9375 2.0625 -1.9375 2.0625 -2.1875 0.1875 C-4.4975 -0.1425 -6.8075 -0.4725 -9.1875 -0.8125 C-9.5175 0.1775 -9.8475 1.1675 -10.1875 2.1875 C-9.424375 2.208125 -8.66125 2.22875 -7.875 2.25 C-5.1875 3.1875 -5.1875 3.1875 -3.3125 6.4375 C-2.18476723 10.19660924 -2.26801787 11.53476278 -3.1875 15.1875 C-6.47869935 15.3839031 -9.77046934 15.56810745 -13.0625 15.75 C-13.99964844 15.80607422 -14.93679688 15.86214844 -15.90234375 15.91992188 C-16.79824219 15.96826172 -17.69414062 16.01660156 -18.6171875 16.06640625 C-19.44460449 16.1135376 -20.27202148 16.16066895 -21.12451172 16.20922852 C-23.1875 16.1875 -23.1875 16.1875 -25.1875 15.1875 C-24.6925 10.7325 -24.6925 10.7325 -24.1875 6.1875 C-23.1975 5.8575 -22.2075 5.5275 -21.1875 5.1875 C-21.1875 3.8675 -21.1875 2.5475 -21.1875 1.1875 C-24.67556471 2.05951618 -26.10937409 3.09418294 -28.4375 5.875 C-31.48073084 11.6178711 -31.02361959 18.82074615 -31.1875 25.1875 C-34.18353507 20.6934474 -33.76400059 16.45527417 -33.1875 11.1875 C-31.1586189 4.32849856 -27.01393288 0.3592592 -20.875 -3.125 C-13.29978073 -5.06284679 -6.74845447 -3.83735647 0 0 Z " fill="#45B2B5" transform="translate(436.1875,230.8125)"/>
<path d="M0 0 C3.96 0 7.92 0 12 0 C13.13764351 4.26616316 14 7.56486311 14 12 C13.401875 12.2475 12.80375 12.495 12.1875 12.75 C9.67317153 14.18675912 8.59509235 15.60736148 7 18 C6.34 18.99 5.68 19.98 5 21 C4.40699409 22.78676715 3.87371449 24.59374285 3.37890625 26.41015625 C3.08306641 27.48330078 2.78722656 28.55644531 2.48242188 29.66210938 C2.17884766 30.78423828 1.87527344 31.90636719 1.5625 33.0625 C-4.37093628 54.74187256 -4.37093628 54.74187256 -6 58 C-9.96 58 -13.92 58 -18 58 C-21.42857143 48.42857143 -21.42857143 48.42857143 -21 44 C-18.6870518 46.3129482 -18.50419025 47.47904875 -17.875 50.625 C-17.70742188 51.44226563 -17.53984375 52.25953125 -17.3671875 53.1015625 C-17.24601562 53.72804688 -17.12484375 54.35453125 -17 55 C-15.54207116 55.05399736 -14.08357288 55.09279177 -12.625 55.125 C-11.81289063 55.14820313 -11.00078125 55.17140625 -10.1640625 55.1953125 C-7.78657757 55.21370051 -7.78657757 55.21370051 -6 53 C-5.51614331 50.99545085 -5.04693 48.98653879 -4.640625 46.96484375 C-4.14275492 44.66067671 -3.59182595 42.40463841 -2.984375 40.12890625 C-2.80245605 39.43941895 -2.62053711 38.74993164 -2.43310547 38.03955078 C-2.06951246 36.67011255 -1.69907565 35.30246734 -1.32080078 33.93701172 C-0.07295876 29.16876771 0.32928898 24.93402362 0 20 C-0.66 19.34 -1.32 18.68 -2 18 C-2 22.29 -2 26.58 -2 31 C-2.99 31.33 -3.98 31.66 -5 32 C-5.33 35.3 -5.66 38.6 -6 42 C-6.66 42 -7.32 42 -8 42 C-8.33 42.66 -8.66 43.32 -9 44 C-11.0625 44.625 -11.0625 44.625 -13 45 C-16.07708804 39.06561592 -17.48736475 34.70126536 -17 28 C-17.66 28 -18.32 28 -19 28 C-19.33 24.37 -19.66 20.74 -20 17 C-17.93209113 20.10186331 -17.06706645 22.63200125 -16 26.1875 C-15.67 27.27417969 -15.34 28.36085937 -15 29.48046875 C-13.91374414 33.30358021 -12.94501989 37.13976249 -12 41 C-7.24981532 27.50745415 -3.47433455 13.87269755 0 0 Z M2 3 C1.37147066 5.33247815 0.84464754 7.69291467 0.375 10.0625 C0.11460937 11.35285156 -0.14578125 12.64320313 -0.4140625 13.97265625 C-0.60742188 14.97167969 -0.80078125 15.97070312 -1 17 C2.05270463 17.15811388 2.05270463 17.15811388 5 16 C4.43260132 11.87026372 4.43260132 11.87026372 3 8 C5.31 8 7.62 8 10 8 C9.88693303 6.04105639 9.88693303 6.04105639 9 4 C5.56954863 2.01515829 5.56954863 2.01515829 2 3 Z " fill="#35B6BD" transform="translate(292,212)"/>
<path d="M0 0 C3.3 0 6.6 0 10 0 C10 13.86 10 27.72 10 42 C6.7 42 3.4 42 0 42 C0 28.14 0 14.28 0 0 Z " fill="#2EBABF" transform="translate(345,228)"/>
<path d="M0 0 C-0.13671875 2.30078125 -0.13671875 2.30078125 -1 5 C-3.58203125 6.73046875 -3.58203125 6.73046875 -6.8125 8.1875 C-8.39998047 8.92033203 -8.39998047 8.92033203 -10.01953125 9.66796875 C-11.78526206 10.45710926 -13.55185241 11.24433869 -15.3203125 12.02734375 C-17.79237476 13.45884027 -18.05917594 15.36569263 -19 18 C-19.47953125 18.62261719 -19.9590625 19.24523437 -20.453125 19.88671875 C-25.63771283 26.96970364 -25.85026957 36.57460156 -25 45 C-24.37026406 46.68096843 -23.70612709 48.34966465 -23 50 C-22.50686503 52.66572015 -22.27476368 55.29815717 -22 58 C-25.63013639 56.78995454 -25.87693578 55.96377988 -27.625 52.6875 C-28.05039062 51.90761719 -28.47578125 51.12773437 -28.9140625 50.32421875 C-32.90765995 41.77677097 -31.6358512 30.82111567 -29 22 C-27.89665367 19.17267504 -26.53428071 16.61490367 -25 14 C-24.60167969 13.24589844 -24.20335937 12.49179688 -23.79296875 11.71484375 C-18.62627346 2.79596629 -10.34045833 -2.73144182 0 0 Z " fill="#46B5B9" transform="translate(79,189)"/>
<path d="M0 0 C0 3 0 3 -1.75 5.125 C-6.38159186 11.04314516 -8.68471436 17.48569235 -9 25 C-9.07734375 26.44632813 -9.07734375 26.44632813 -9.15625 27.921875 C-9.34326574 34.18690236 -8.98004517 38.48139783 -6 44 C-5.484375 45.11375 -4.96875 46.2275 -4.4375 47.375 C-3.26714206 50.1038021 -3.26714206 50.1038021 -1 51 C-1.28875 50.21238281 -1.5775 49.42476562 -1.875 48.61328125 C-4.63587382 40.51280077 -5.50266668 33.53137061 -5 25 C-4.67 25 -4.34 25 -4 25 C-3.96132813 26.01707031 -3.96132813 26.01707031 -3.921875 27.0546875 C-3.24640145 38.1385944 -0.03932951 45.05810401 7.09375 53.46875 C10.13697968 57.5097599 13 62.81649416 13 68 C21.91 68 30.82 68 40 68 C40.33 65.69 40.66 63.38 41 61 C42.12109375 58.56640625 42.12109375 58.56640625 43.4375 56.5625 C43.86933594 55.88316406 44.30117187 55.20382813 44.74609375 54.50390625 C45.15988281 54.00761719 45.57367188 53.51132813 46 53 C46.66 53 47.32 53 48 53 C47.59288789 55.36125026 47.34271128 56.67963945 45.5625 58.34375 C43.6674339 60.35252006 43.11250104 62.05892515 42.3125 64.6875 C41.93544922 65.89986328 41.93544922 65.89986328 41.55078125 67.13671875 C41.36902344 67.75160156 41.18726563 68.36648438 41 69 C36.90658501 69.02469575 32.81319879 69.04285793 28.71972656 69.05493164 C27.32681523 69.0599643 25.9339092 69.06679098 24.54101562 69.07543945 C22.54038754 69.08755152 20.53972112 69.09270412 18.5390625 69.09765625 C17.33459473 69.10289307 16.13012695 69.10812988 14.88916016 69.11352539 C12 69 12 69 10 68 C8.80033743 65.3970624 7.94626498 62.7097588 7 60 C6.67 63.3 6.34 66.6 6 70 C6.66 70 7.32 70 8 70 C8 70.99 8 71.98 8 73 C12.12613297 72.88074095 16.2520818 72.7564388 20.37792969 72.62768555 C21.77827952 72.58466974 23.17867064 72.54297507 24.57910156 72.50268555 C35.32448276 72.19311319 35.32448276 72.19311319 46 71 C45.505 72.485 45.505 72.485 45 74 C39.62485095 74.04935509 34.24983315 74.08569802 28.87451172 74.10986328 C27.04506127 74.11993484 25.21562697 74.13359276 23.38623047 74.15087891 C20.76005066 74.17507677 18.13408325 74.18647132 15.5078125 74.1953125 C14.27649094 74.21079636 14.27649094 74.21079636 13.02029419 74.22659302 C11.01210858 74.22699184 9.00444618 74.1224954 7 74 C5 72 5 72 4.3125 68.0625 C2.86683029 60.90354358 -1.51093251 54.98871455 -6.12109375 49.453125 C-7.93036102 47.09092158 -8.8288348 45.31920135 -9.6875 42.5 C-9.91824219 41.7678125 -10.14898437 41.035625 -10.38671875 40.28125 C-13.68260221 28.02140326 -11.95725298 17.83037404 -5.75 6.8125 C-5.1725 5.884375 -4.595 4.95625 -4 4 C-3.34 4 -2.68 4 -2 4 C-1.34 2.68 -0.68 1.36 0 0 Z " fill="#50B2B6" transform="translate(58,196)"/>
<path d="M0 0 C1.2892247 3.22306175 0.88786345 5.74386921 -0.1328125 9.015625 C-1.52372818 12.19844107 -3.55426796 14.90079135 -5.56640625 17.71875 C-6.98405108 19.9746208 -7.667893 21.88636888 -8.375 24.4375 C-10 28 -10 28 -13.1328125 29.21484375 C-19.80742224 30.61808848 -26.71447058 30.20946056 -33.5 30.125 C-34.90884781 30.11495069 -36.31770255 30.10582829 -37.7265625 30.09765625 C-41.1512205 30.07419969 -44.57551939 30.04137384 -48 30 C-48 29.01 -48 28.02 -48 27 C-48.66 27 -49.32 27 -50 27 C-50 23.37 -50 19.74 -50 16 C-48.515 16.99 -48.515 16.99 -47 18 C-46.67 20.31 -46.34 22.62 -46 25 C-35.77 25 -25.54 25 -15 25 C-14.34 22.36 -13.68 19.72 -13 17 C-12.34 16.01 -11.68 15.02 -11 14 C-10.34 14 -9.68 14 -9 14 C-9 12.35 -9 10.7 -9 9 C-7.68 8.67 -6.36 8.34 -5 8 C-4.67 6.68 -4.34 5.36 -4 4 C-3.01 4 -2.02 4 -1 4 C-0.67 2.68 -0.34 1.36 0 0 Z " fill="#32B8BF" transform="translate(114,239)"/>
<path d="M0 0 C2.5 0.3125 2.5 0.3125 5 1 C6.35439668 3.70879335 6.06501451 6.00933268 6 9 C4.02 9.99 4.02 9.99 2 11 C2 12.32 2 13.64 2 15 C6.95514502 14.12527407 6.95514502 14.12527407 10.4375 10.875 C10.623125 10.25625 10.80875 9.6375 11 9 C11.99 9.66 12.98 10.32 14 11 C14.1875 14.625 14.1875 14.625 14 18 C13.38511719 18.19335938 12.77023438 18.38671875 12.13671875 18.5859375 C10.92435547 18.97652344 10.92435547 18.97652344 9.6875 19.375 C8.88699219 19.63023437 8.08648437 19.88546875 7.26171875 20.1484375 C4.77275472 20.98831811 4.77275472 20.98831811 2 23 C1.67 23.99 1.34 24.98 1 26 C1.86625 25.67 2.7325 25.34 3.625 25 C6.95718275 24.01268659 9.55159538 23.83579026 13 24 C12.67 25.98 12.34 27.96 12 30 C10.576875 30.3403125 10.576875 30.3403125 9.125 30.6875 C5.80676612 31.69083714 5.80676612 31.69083714 4.625 34.625 C4.41875 35.40875 4.2125 36.1925 4 37 C2.68 37 1.36 37 0 37 C-1.76072584 35.23927416 -1.12834784 32.9210371 -1.13894653 30.5760498 C-1.1369223 29.81876587 -1.13489807 29.06148193 -1.1328125 28.28125 C-1.13376923 27.50817505 -1.13472595 26.7351001 -1.13571167 25.93859863 C-1.13639341 24.30102456 -1.13453957 22.66344781 -1.13037109 21.02587891 C-1.12502271 18.51068079 -1.13031626 15.99566127 -1.13671875 13.48046875 C-1.13605797 11.89322877 -1.1347768 10.3059889 -1.1328125 8.71875 C-1.13483673 7.96146606 -1.13686096 7.20418213 -1.13894653 6.4239502 C-1.11495132 1.11495132 -1.11495132 1.11495132 0 0 Z " fill="#D8F8F9" transform="translate(90,207)"/>
<path d="M0 0 C0 12.21 0 24.42 0 37 C-1.32 37 -2.64 37 -4 37 C-4.45375 36.236875 -4.9075 35.47375 -5.375 34.6875 C-7.40261568 31.3341356 -9.44991832 30.49892338 -13 29 C-12.67 27.35 -12.34 25.7 -12 24 C-10.35 23.67 -8.7 23.34 -7 23 C-7 22.01 -7 21.02 -7 20 C-7.969375 19.690625 -8.93875 19.38125 -9.9375 19.0625 C-13 18 -13 18 -14 17 C-14.04080783 15.00041636 -14.04254356 12.99954746 -14 11 C-12.68 10.67 -11.36 10.34 -10 10 C-9.34 11.65 -8.68 13.3 -8 15 C-6.35 15 -4.7 15 -3 15 C-3 14.34 -3 13.68 -3 13 C-4.0209375 12.1646875 -4.0209375 12.1646875 -5.0625 11.3125 C-7 9 -7 9 -6.9375 5.375 C-5.73136671 1.03292014 -4.53268014 0 0 0 Z " fill="#E9FBFB" transform="translate(78,207)"/>
<path d="M0 0 C0.99457718 0.00212242 0.99457718 0.00212242 2.00924683 0.00428772 C4.12860613 0.00988871 6.24786009 0.02244125 8.3671875 0.03515625 C9.80338389 0.04017113 11.23958194 0.04473406 12.67578125 0.04882812 C16.19795095 0.05985843 19.72005895 0.07712366 23.2421875 0.09765625 C23.4921875 5.72265625 23.4921875 5.72265625 21.2421875 9.09765625 C20.5821875 9.09765625 19.9221875 9.09765625 19.2421875 9.09765625 C18.96761719 9.67386719 18.69304687 10.25007812 18.41015625 10.84375 C14.9461998 17.528375 11.4985249 21.77562828 4.2421875 24.09765625 C6.05527753 20.32038536 8.1495134 16.72495803 10.2421875 13.09765625 C9.5821875 12.76765625 8.9221875 12.43765625 8.2421875 12.09765625 C9.2321875 10.44765625 10.2221875 8.79765625 11.2421875 7.09765625 C4.6421875 6.76765625 -1.9578125 6.43765625 -8.7578125 6.09765625 C-8.7578125 4.44765625 -8.7578125 2.79765625 -8.7578125 1.09765625 C-5.8358356 -0.3633322 -3.25887775 -0.01369276 0 0 Z " fill="#30BABF" transform="translate(372.7578125,228.90234375)"/>
<path d="M0 0 C10.56 0 21.12 0 32 0 C32 2.64 32 5.28 32 8 C31.26394531 8.03738281 30.52789062 8.07476562 29.76953125 8.11328125 C24.17607838 8.49011889 20.8072579 9.0903439 16 12 C11.45031944 12.72190503 8.09000009 12.62617027 4.0625 10.3125 C1.09823172 6.98892647 0 4.44793499 0 0 Z " fill="#F0FBFC" transform="translate(412,251)"/>
<path d="M0 0 C2.03144641 0.93446535 4.03533587 1.93224776 6 3 C6 3.99 6 4.98 6 6 C3.69 6 1.38 6 -1 6 C-0.649375 6.7425 -0.29875 7.485 0.0625 8.25 C1.04509293 11.1322726 1.0326802 12.21176345 0 15 C-1.32 15 -2.64 15 -4 15 C-5.48165503 12.03668994 -4.48358108 10.10295983 -3.6875 6.9375 C-3.42324219 5.85339844 -3.15898437 4.76929688 -2.88671875 3.65234375 C-2 1 -2 1 0 0 Z M-6 15 C-4.5 16 -4.5 16 -3 18 C-2.66926793 23.68981645 -3.36118034 28.47481742 -4.875 33.9375 C-6.05743759 38.37821007 -7.19643337 42.79710989 -8.0625 47.3125 C-9.24534687 51.96503102 -9.24534687 51.96503102 -12 54 C-14.26171875 54.29296875 -14.26171875 54.29296875 -16.6875 54.1875 C-17.89986328 54.14689453 -17.89986328 54.14689453 -19.13671875 54.10546875 C-19.75160156 54.07066406 -20.36648438 54.03585937 -21 54 C-21 52 -21 52 -19.5 50.375 C-18.7575 49.694375 -18.7575 49.694375 -18 49 C-19.32 48.34 -20.64 47.68 -22 47 C-21.505 45.515 -21.505 45.515 -21 44 C-20.01 44 -19.02 44 -18 44 C-17.67 43.34 -17.34 42.68 -17 42 C-15.68 42 -14.36 42 -13 42 C-12.67 41.01 -12.34 40.02 -12 39 C-11.649375 38.38125 -11.29875 37.7625 -10.9375 37.125 C-9.82876676 34.61187131 -9.8490005 32.71799097 -10 30 C-8.68 29.67 -7.36 29.34 -6 29 C-6.33 28.01 -6.66 27.02 -7 26 C-7.09267588 24.29367352 -7.12998202 22.58383413 -7.125 20.875 C-7.12886719 19.54082031 -7.12886719 19.54082031 -7.1328125 18.1796875 C-7 16 -7 16 -6 15 Z " fill="#2ABBC0" transform="translate(296,214)"/>
<path d="M0 0 C3 3.75 3 3.75 3 6 C4.98 6 6.96 6 9 6 C9 4.35 9 2.7 9 1 C9.66 1.99 10.32 2.98 11 4 C13.10775182 6.74646449 14.6550579 8.73394067 18.15234375 9.42578125 C21.86197832 9.54305755 24.27864054 9.43281568 27.5 7.5 C31.21408648 5.27154811 34.77085184 5.75122658 39 6 C37.33717685 11.44196669 34.2377727 13.46909131 29.6875 16.58203125 C24.93098237 19.09164738 20.22746401 18.78672033 15 18 C8.51955611 15.55640721 4.21001342 11.88478167 0.7421875 5.9296875 C0 4 0 4 0 0 Z " fill="#57B4B9" transform="translate(403,253)"/>
<path d="M0 0 C1.65 0 3.3 0 5 0 C5.6875 1.5625 5.6875 1.5625 6 4 C5.26114872 5.68524504 4.52068645 7.36982167 3.76831055 9.04907227 C2.53658896 12.17671359 2.09264722 15.3781959 1.5625 18.6875 C0.52237621 24.81014385 -0.97328984 30.50913298 -3.1328125 36.3515625 C-4.07169298 39.21895424 -4.57139506 42.01725951 -5 45 C-5.99 45 -6.98 45 -8 45 C-9.32286246 40.03926578 -9.08893197 35.08888488 -9 30 C-8.34 30 -7.68 30 -7 30 C-6.95101563 29.32195312 -6.90203125 28.64390625 -6.8515625 27.9453125 C-6.33435787 21.50700659 -5.40818879 15.30267023 -4 9 C-3.34 9 -2.68 9 -2 9 C-1.855625 7.88625 -1.71125 6.7725 -1.5625 5.625 C-1 2 -1 2 0 0 Z " fill="#2EBAC1" transform="translate(330,213)"/>
<path d="M0 0 C0.66 0 1.32 0 2 0 C2 2.31 2 4.62 2 7 C9.59 7 17.18 7 25 7 C25 9.31 25 11.62 25 14 C20.46102295 14.02465392 15.92208457 14.04283789 11.38305664 14.05493164 C9.83780234 14.0599714 8.29255284 14.0668032 6.74731445 14.07543945 C4.53074971 14.08752076 2.31424782 14.09323173 0.09765625 14.09765625 C-0.94454323 14.10539818 -0.94454323 14.10539818 -2.00779724 14.11329651 C-3.6722933 14.11349277 -5.33665499 14.06189129 -7 14 C-7.33 13.67 -7.66 13.34 -8 13 C-7.71269945 10.66055264 -7.38063221 8.3260857 -7 6 C-6.34 6 -5.68 6 -5 6 C-4.34 4.68 -3.68 3.36 -3 2 C-2.34 2 -1.68 2 -1 2 C-0.67 1.34 -0.34 0.68 0 0 Z " fill="#30BABE" transform="translate(372,255)"/>
<path d="M0 0 C1.39120471 0.00015906 2.78241534 0.00585033 4.17358398 0.01586914 C4.90463852 0.01728409 5.63569305 0.01869904 6.38890076 0.02015686 C8.73253406 0.02577131 11.07607313 0.03832617 13.41967773 0.05102539 C15.00496282 0.05603853 16.59024939 0.06060176 18.17553711 0.06469727 C22.06945383 0.07574542 25.96329979 0.09301967 29.85717773 0.11352539 C29.85717773 2.09352539 29.85717773 4.07352539 29.85717773 6.11352539 C26.53721509 7.2201796 24.04029174 7.24287395 20.54467773 7.24633789 C19.30459961 7.24762695 18.06452148 7.24891602 16.78686523 7.25024414 C15.49006836 7.24637695 14.19327148 7.24250977 12.85717773 7.23852539 C10.91198242 7.24432617 10.91198242 7.24432617 8.92749023 7.25024414 C7.68741211 7.24895508 6.44733398 7.24766602 5.16967773 7.24633789 C3.46231445 7.244646 3.46231445 7.244646 1.72045898 7.24291992 C-1.14282227 7.11352539 -1.14282227 7.11352539 -4.14282227 6.11352539 C-4.18554327 4.44740634 -4.18346059 2.77969654 -4.14282227 1.11352539 C-3.14282227 0.11352539 -3.14282227 0.11352539 0 0 Z " fill="#64B9BE" transform="translate(71.142822265625,275.886474609375)"/>
<path d="M0 0 C1.2065625 0.0309375 1.2065625 0.0309375 2.4375 0.0625 C2.1075 1.3825 1.7775 2.7025 1.4375 4.0625 C2.0975 4.3925 2.7575 4.7225 3.4375 5.0625 C3.5274783 9.5614151 3.18302241 13.63834148 2.4375 18.0625 C2.20203376 20.28896411 1.99392422 22.51848212 1.8125 24.75 C1.71710938 25.86761719 1.62171875 26.98523438 1.5234375 28.13671875 C1.26775729 31.12651292 1.26775729 31.12651292 2.4375 34.0625 C1.7775 34.0625 1.1175 34.0625 0.4375 34.0625 C0.1075 34.7225 -0.2225 35.3825 -0.5625 36.0625 C-3.5625 34.0625 -3.5625 34.0625 -4.109375 31.47265625 C-4.72656541 21.30088352 -4.51098749 11.21131614 -3.5625 1.0625 C-2.5625 0.0625 -2.5625 0.0625 0 0 Z " fill="#152E5D" transform="translate(235.5625,231.9375)"/>
<path d="M0 0 C3.3 0 6.6 0 10 0 C9.43973751 7.07968052 7.89388292 13.41147314 5.8125 20.1875 C5.18059335 22.29506446 4.55042733 24.40315148 3.921875 26.51171875 C3.44331055 28.11345947 3.44331055 28.11345947 2.95507812 29.74755859 C1.41892175 34.97881504 -0.01414938 40.23711447 -1.4375 45.5 C-1.69619873 46.45543701 -1.95489746 47.41087402 -2.22143555 48.39526367 C-2.816101 50.59636168 -3.40911645 52.79788429 -4 55 C-4.33 55 -4.66 55 -5 55 C-5.26844472 49.44972409 -4.37988264 45.07795783 -2.6875 39.8125 C-2.2247204 38.30915958 -1.76379038 36.80524857 -1.3046875 35.30078125 C-1.08006836 34.56939941 -0.85544922 33.83801758 -0.62402344 33.08447266 C1.25003447 26.82441536 2.69896225 20.45014993 4.0625 14.0625 C4.74820292 10.87599818 5.75738026 8.01779079 7 5 C7 4.01 7 3.02 7 2 C4.525 1.505 4.525 1.505 2 1 C1.34 3.97 0.68 6.94 0 10 C-0.66 10 -1.32 10 -2 10 C-1.9690625 11.00160156 -1.938125 12.00320312 -1.90625 13.03515625 C-2.00102863 17.04350243 -2.60802842 20.53512433 -3.5 24.4375 C-3.7784375 25.67371094 -4.056875 26.90992188 -4.34375 28.18359375 C-4.5603125 29.11300781 -4.776875 30.04242188 -5 31 C-5.66 31 -6.32 31 -7 31 C-7.12375 32.03125 -7.2475 33.0625 -7.375 34.125 C-7.93889814 37.62116846 -8.78682059 40.68397627 -10 44 C-10.33 44 -10.66 44 -11 44 C-10.50168403 37.77105043 -8.95852135 32.13769101 -7.18359375 26.15625 C-5.49067951 20.34539739 -4.0917874 14.45738287 -2.66308594 8.57714844 C-2.46102539 7.7524707 -2.25896484 6.92779297 -2.05078125 6.078125 C-1.87200439 5.33981445 -1.69322754 4.60150391 -1.5090332 3.84082031 C-1 2 -1 2 0 0 Z " fill="#5CB4B8" transform="translate(328,212)"/>
<path d="M0 0 C4.62 0 9.24 0 14 0 C11.70176341 2.29823659 11.05119118 2.29690384 7.9375 2.5625 C4.23263383 2.55913448 4.23263383 2.55913448 3 4 C2.90666295 5.59610982 2.88254628 7.19633428 2.88647461 8.79516602 C2.88655014 9.81614883 2.88662567 10.83713165 2.88670349 11.88905334 C2.89186478 12.9994548 2.89702606 14.10985626 2.90234375 15.25390625 C2.9037587 16.38448959 2.90517365 17.51507294 2.90663147 18.67991638 C2.91224981 22.30747065 2.92480542 25.93496424 2.9375 29.5625 C2.94251264 32.01497307 2.94707595 34.4674471 2.95117188 36.91992188 C2.9622252 42.94663545 2.97898116 48.97331339 3 55 C4.99939871 54.13044719 4.99939871 54.13044719 7 53 C7.73094867 51.09328165 7.73094867 51.09328165 7.828125 48.8671875 C7.90546875 48.06152344 7.9828125 47.25585938 8.0625 46.42578125 C8.124375 45.58402344 8.18625 44.74226563 8.25 43.875 C8.32734375 43.02550781 8.4046875 42.17601562 8.484375 41.30078125 C8.67303293 39.20196182 8.83870349 37.1010993 9 35 C9.33 35 9.66 35 10 35 C10 42.26 10 49.52 10 57 C6.7 57 3.4 57 0 57 C0 38.19 0 19.38 0 0 Z " fill="#1B2944" transform="translate(140,213)"/>
<path d="M0 0 C3.3 0 6.6 0 10 0 C10 13.86 10 27.72 10 42 C6.7 42 3.4 42 0 42 C0 28.14 0 14.28 0 0 Z M2 3 C1.91138008 5.8116338 1.88477645 8.59858255 1.90234375 11.41015625 C1.9037587 12.25219101 1.90517365 13.09422577 1.90663147 13.96177673 C1.91224737 16.66205335 1.92480252 19.36224828 1.9375 22.0625 C1.94251295 23.88867068 1.94707621 25.71484266 1.95117188 27.54101562 C1.96222196 32.02737542 1.97949721 36.51367384 2 41 C4.475 40.505 4.475 40.505 7 40 C8.87744207 35.2647451 9.17946096 31.4865239 8.9765625 26.4140625 C8.93902359 25.36138687 8.93902359 25.36138687 8.90072632 24.28744507 C8.81915338 22.06609174 8.72232785 19.84571312 8.625 17.625 C8.56669601 16.11071572 8.5093942 14.5963925 8.453125 13.08203125 C8.31367071 9.38749939 8.16053972 5.69368262 8 2 C4.71069596 1.63314303 4.71069596 1.63314303 2 3 Z " fill="#5EBABF" transform="translate(345,228)"/>
<path d="M0 0 C2.35673914 1.82675474 3.36750075 3.39820432 5 6 C5 7.32 5 8.64 5 10 C-1.93 10 -8.86 10 -16 10 C-16 5 -16 5 -13.6875 2.25 C-9.37219354 -1.36281471 -5.29891582 -1.69070466 0 0 Z " fill="#EDFBFC" transform="translate(429,235)"/>
<path d="M0 0 C11.88 0 23.76 0 36 0 C34.68 0.99 33.36 1.98 32 3 C31.67 3.99 31.34 4.98 31 6 C21.43 6 11.86 6 2 6 C2.33 5.01 2.66 4.02 3 3 C2.01 2.01 1.02 1.02 0 0 Z " fill="#E7F7F8" transform="translate(66,270)"/>
<path d="M0 0 C2 1.375 2 1.375 4 3 C4 3.66 4 4.32 4 5 C3.34 5 2.68 5 2 5 C2.33 5.66 2.66 6.32 3 7 C3.06012007 8.39065799 3.06051513 9.78421963 3.02734375 11.17578125 C3.01509766 12.00400391 3.00285156 12.83222656 2.99023438 13.68554688 C2.9553116 15.42521824 2.91630458 17.16481281 2.87304688 18.90429688 C2.81285719 23.4751724 2.99320985 26.80467266 5 31 C5.49313497 33.66572015 5.72523632 36.29815717 6 39 C2.36986361 37.78995454 2.12306422 36.96377988 0.375 33.6875 C-0.05039062 32.90761719 -0.47578125 32.12773437 -0.9140625 31.32421875 C-5.39014756 21.74410863 -3.23055667 9.69167001 0 0 Z " fill="#2DB9BD" transform="translate(51,208)"/>
<path d="M0 0 C0.66 0 1.32 0 2 0 C2.28875 0.969375 2.5775 1.93875 2.875 2.9375 C3.64214682 6.10664203 3.64214682 6.10664203 6 7 C5.67 13.6 5.34 20.2 5 27 C5.66 27 6.32 27 7 27 C9.01454482 21.27161874 9.10977288 16.57853144 8.625 10.5625 C8.53992188 9.32209961 8.53992188 9.32209961 8.453125 8.05664062 C8.31303232 6.03697112 8.15805019 4.01834363 8 2 C11.8897686 7.83465289 11.58532162 14.16597462 11 21 C9.53266552 27.50857276 7.61892803 33.36940424 4 39 C3.17361624 36.10765685 3 34.11257569 3 31 C2.505 32.485 2.505 32.485 2 34 C0.515 34.495 0.515 34.495 -1 35 C-1.33 35.99 -1.66 36.98 -2 38 C-4.0625 38.6875 -4.0625 38.6875 -6 39 C-4.8553125 37.5459375 -4.8553125 37.5459375 -3.6875 36.0625 C1.05663499 29.26976127 2.25468794 23.13075193 2.3125 14.875 C2.31805908 14.20605713 2.32361816 13.53711426 2.3293457 12.84790039 C2.26233671 8.20137067 1.42521291 4.37216711 0 0 Z " fill="#4EB3B6" transform="translate(111,209)"/>
<path d="M0 0 C2.475 0.495 2.475 0.495 5 1 C6.35439668 3.70879335 6.06501451 6.00933268 6 9 C4.02 9.99 4.02 9.99 2 11 C2 12.32 2 13.64 2 15 C6.95514502 14.12527407 6.95514502 14.12527407 10.4375 10.875 C10.623125 10.25625 10.80875 9.6375 11 9 C11.99 9.66 12.98 10.32 14 11 C14.25 14.5625 14.25 14.5625 14 18 C11.44946069 20.55053931 3.09014574 19.7899901 0 20 C0 13.4 0 6.8 0 0 Z " fill="#EEFAFB" transform="translate(90,207)"/>
<path d="M0 0 C7.59 0 15.18 0 23 0 C23.33 0.99 23.66 1.98 24 3 C21.22449902 6.03983441 19.21987273 6.9163148 15.0390625 7.203125 C13.34910156 7.22632813 13.34910156 7.22632813 11.625 7.25 C10.50351563 7.27578125 9.38203125 7.3015625 8.2265625 7.328125 C4.64486914 6.963885 2.76419112 6.29831621 0 4 C0 2.68 0 1.36 0 0 Z " fill="#56A9AA" transform="translate(72,287)"/>
<path d="M0 0 C2.97 0 5.94 0 9 0 C9.33 2.64 9.66 5.28 10 8 C9.01 8 8.02 8 7 8 C7 7.01 7 6.02 7 5 C5.68 5 4.36 5 3 5 C2.1066716 21.49042139 2.1066716 21.49042139 2 38 C3.32 38 4.64 38 6 38 C6.99 38.33 7.98 38.66 9 39 C9 39.99 9 40.98 9 42 C6.03 42 3.06 42 0 42 C0 28.14 0 14.28 0 0 Z " fill="#202D4D" transform="translate(230,228)"/>
<path d="M0 0 C3.84551419 0.54935917 5.57756725 2.00242225 8 5 C10.31004639 13.97886809 11.54360466 24.60177991 7 33 C6.34 32.67 5.68 32.34 5 32 C5.02094727 31.43079834 5.04189453 30.86159668 5.06347656 30.27514648 C5.14730994 27.66278184 5.19886818 25.05070116 5.25 22.4375 C5.28351563 21.54224609 5.31703125 20.64699219 5.3515625 19.72460938 C5.44266199 13.50706951 4.45701641 10.15893218 1 5 C0.25 2.0625 0.25 2.0625 0 0 Z " fill="#32BABD" transform="translate(111,204)"/>
<path d="M0 0 C1.32 0 2.64 0 4 0 C4.33951619 1.56116819 4.67132544 3.12401338 5 4.6875 C5.185625 5.55761719 5.37125 6.42773438 5.5625 7.32421875 C5.98972047 9.93712964 6.07616201 12.35813038 6 15 C5.34 15 4.68 15 4 15 C3.67 16.32 3.34 17.64 3 19 C2.34 19 1.68 19 1 19 C1 19.66 1 20.32 1 21 C-0.32 20.34 -1.64 19.68 -3 19 C-3 14.05 -3 9.1 -3 4 C-2.34 4 -1.68 4 -1 4 C-0.67 2.68 -0.34 1.36 0 0 Z " fill="#152D5A" transform="translate(216,240)"/>
<path d="M0 0 C1.45880109 0.14107747 2.91703551 0.28802415 4.375 0.4375 C5.59316406 0.55931641 5.59316406 0.55931641 6.8359375 0.68359375 C9 1 9 1 11 2 C11.45375 2.763125 11.9075 3.52625 12.375 4.3125 C13.84359975 7.04607779 13.84359975 7.04607779 16.0625 8.8125 C18.88191562 11.99571118 19.24890652 14.83484524 20 19 C19 20 19 20 17.15234375 20.09765625 C15.1015625 20.06510417 13.05078125 20.03255208 11 20 C11 19.01 11 18.02 11 17 C11.99 16.67 12.98 16.34 14 16 C14 15.01 14 14.02 14 13 C13.34 13 12.68 13 12 13 C8 7.58823529 8 7.58823529 8 5 C6.35 4.67 4.7 4.34 3 4 C3 3.34 3 2.68 3 2 C2.01 1.34 1.02 0.68 0 0 Z " fill="#30BAC0" transform="translate(423,229)"/>
<path d="M0 0 C1.32 0.66 2.64 1.32 4 2 C3.34 2.66 2.68 3.32 2 4 C1.79106163 6.62536428 1.69891322 9.153918 1.69140625 11.78125 C1.66625338 13.36068089 1.64085525 14.94010788 1.61523438 16.51953125 C1.58643711 19.0148016 1.56242493 21.51000458 1.54370117 24.00537109 C1.52211527 26.41018246 1.48268965 28.8142082 1.44140625 31.21875 C1.44129044 31.9677356 1.44117462 32.71672119 1.4410553 33.48840332 C1.40063477 35.59179688 1.40063477 35.59179688 1 39 C0.01 39.66 -0.98 40.32 -2 41 C-2.04941382 35.64316151 -2.08572607 30.2864555 -2.10986328 24.92944336 C-2.11992491 23.10682871 -2.1335756 21.28423021 -2.15087891 19.46166992 C-2.17512021 16.84289565 -2.18648138 14.22433469 -2.1953125 11.60546875 C-2.20563507 10.78974899 -2.21595764 9.97402924 -2.22659302 9.1335907 C-2.2273686 5.22869244 -2.21650661 3.32475992 0 0 Z " fill="#4AABAE" transform="translate(88,204)"/>
<path d="M0 0 C1.95231826 2.37673528 2.04095569 3.56996525 1.75 6.625 C1 9 1 9 -1 11 C-6.16184971 11.54913295 -6.16184971 11.54913295 -8.8125 9.8125 C-10.3262715 7.50200666 -10.79362145 5.751714 -11 3 C-7.90413002 -1.64380497 -5.10449104 -1.4118805 0 0 Z " fill="#58B1B4" transform="translate(354,210)"/>
<path d="M0 0 C7.14893617 -0.56737589 7.14893617 -0.56737589 11 2 C11.22265625 4.27734375 11.22265625 4.27734375 11.0625 6.9375 C10.80295281 11.22148069 10.80295281 11.22148069 13 15 C11.25 17 11.25 17 9 19 C7.68 19 6.36 19 5 19 C5 17.68 5 16.36 5 15 C5.99 14.34 6.98 13.68 8 13 C8.36297936 11.02252878 8.36297936 11.02252878 8.1875 8.875 C8.125625 7.59625 8.06375 6.3175 8 5 C5.66785852 3.79371992 3.50357861 2.8345262 1 2 C-0.60951543 5.21903085 -0.24234748 8.74838832 -0.31640625 12.2890625 C-0.33718735 13.10748627 -0.35796844 13.92591003 -0.37937927 14.76913452 C-0.44484812 17.38766966 -0.50374726 20.00630639 -0.5625 22.625 C-0.60568776 24.39844807 -0.64930214 26.17188581 -0.69335938 27.9453125 C-0.80052676 32.29677046 -0.90180169 36.64833077 -1 41 C-1.33 41 -1.66 41 -2 41 C-2.04941382 35.64316151 -2.08572607 30.2864555 -2.10986328 24.92944336 C-2.11992491 23.10682871 -2.1335756 21.28423021 -2.15087891 19.46166992 C-2.17512021 16.84289565 -2.18648138 14.22433469 -2.1953125 11.60546875 C-2.20563507 10.78974899 -2.21595764 9.97402924 -2.22659302 9.1335907 C-2.2273686 5.22869244 -2.21650661 3.32475992 0 0 Z " fill="#62AFB5" transform="translate(87,203)"/>
<path d="M0 0 C11.22 0 22.44 0 34 0 C34 9 34 9 32.25 11.84765625 C31.5075 12.57855469 30.765 13.30945313 30 14.0625 C29.2575 14.81660156 28.515 15.57070312 27.75 16.34765625 C27.1725 16.89292969 26.595 17.43820313 26 18 C25.34 17.67 24.68 17.34 24 17 C24.78345715 15.82780457 25.57702836 14.66236332 26.375 13.5 C26.81585938 12.8503125 27.25671875 12.200625 27.7109375 11.53125 C28.13632812 11.0259375 28.56171875 10.520625 29 10 C29.66 10 30.32 10 31 10 C31.66 7.03 32.32 4.06 33 1 C17.16 1.495 17.16 1.495 1 2 C1 3.65 1 5.3 1 7 C8.26 7 15.52 7 23 7 C21 9 21 9 18.84521484 9.22705078 C17.97590332 9.21657715 17.1065918 9.20610352 16.2109375 9.1953125 C15.26992188 9.18886719 14.32890625 9.18242187 13.359375 9.17578125 C12.37453125 9.15902344 11.3896875 9.14226562 10.375 9.125 C9.38242187 9.11597656 8.38984375 9.10695312 7.3671875 9.09765625 C4.91121866 9.07404116 2.45572832 9.04110799 0 9 C0 6.03 0 3.06 0 0 Z " fill="#51A4A8" transform="translate(363,228)"/>
<path d="M0 0 C8.91 0 17.82 0 27 0 C27 1.32 27 2.64 27 4 C17.76 4 8.52 4 -1 4 C-0.67 2.68 -0.34 1.36 0 0 Z " fill="#33B9C1" transform="translate(71,277)"/>
<path d="M0 0 C4 0 4 0 5.625 1.4375 C6.07875 1.953125 6.5325 2.46875 7 3 C10.18286211 4.59143106 13.53482153 4.40059867 17 4 C19.71126384 2.57378316 19.71126384 2.57378316 22 1 C23.32 1 24.64 1 26 1 C25.62724214 3.70249451 25.21551151 4.79935135 23.1875 6.6875 C17.58649418 10.04810349 11.19557535 9.50195766 5 8 C5 7.34 5 6.68 5 6 C4.360625 5.7525 3.72125 5.505 3.0625 5.25 C1 4 1 4 0.25 1.875 C0.1675 1.25625 0.085 0.6375 0 0 Z " fill="#30B9C0" transform="translate(411,260)"/>
<path d="M0 0 C3.3 0 6.6 0 10 0 C10.696553 1.95513161 11.38199565 3.91422476 12.0625 5.875 C12.44535156 6.96554688 12.82820313 8.05609375 13.22265625 9.1796875 C14 12 14 12 13 14 C10.49484216 11.49484216 9.94900914 9.38931835 9 6 C9 4.68 9 3.36 9 2 C6.69 2 4.38 2 2 2 C2.59642978 3.89828157 3.20250163 5.79353501 3.8125 7.6875 C4.14894531 8.74324219 4.48539062 9.79898438 4.83203125 10.88671875 C5.85863429 13.98614023 5.85863429 13.98614023 7.59375 16.375 C9.53651384 20.0014925 9.56062713 23.25619317 9.6875 27.3125 C9.73874023 28.42334961 9.73874023 28.42334961 9.79101562 29.55664062 C9.87293554 31.37058164 9.93815822 33.18526353 10 35 C7.02658233 29.53248157 5.62769257 23.43933632 3.875 17.5 C3.31619141 15.64568359 3.31619141 15.64568359 2.74609375 13.75390625 C2.39417969 12.56667969 2.04226563 11.37945312 1.6796875 10.15625 C1.35726074 9.07150391 1.03483398 7.98675781 0.70263672 6.86914062 C0 4 0 4 0 0 Z " fill="#53B1B1" transform="translate(258,212)"/>
<path d="M0 0 C3.29702607 0.27475217 4.71941215 0.72766473 7.125 3.0625 C11.13487657 9.34463996 12.397444 14.58104527 12 22 C9.89172945 18.83759418 9.66182535 17.49342531 9.375 13.8125 C9.26285156 12.46091797 9.26285156 12.46091797 9.1484375 11.08203125 C9.07496094 10.05142578 9.07496094 10.05142578 9 9 C8.34 9 7.68 9 7 9 C6.67 10.32 6.34 11.64 6 13 C5.67 12.34 5.34 11.68 5 11 C4.67 14.3 4.34 17.6 4 21 C3.67 21 3.34 21 3 21 C2.87625 20.0925 2.7525 19.185 2.625 18.25 C2.07143236 15.37144828 1.39227478 13.52349804 0 11 C-0.33 10.01 -0.66 9.02 -1 8 C-0.34 7.34 0.32 6.68 1 6 C1 5.01 1 4.02 1 3 C1.33 3 1.66 3 2 3 C2 2.34 2 1.68 2 1 C1.34 0.67 0.68 0.34 0 0 Z " fill="#27365E" transform="translate(211,231)"/>
<path d="M0 0 C0.24798276 2.95786664 0.47411854 5.91461298 0.6875 8.875 C0.76033203 9.71675781 0.83316406 10.55851563 0.90820312 11.42578125 C0.96298828 12.23144531 1.01777344 13.03710938 1.07421875 13.8671875 C1.13182373 14.61081543 1.18942871 15.35444336 1.2487793 16.12060547 C1.16668213 16.74080566 1.08458496 17.36100586 1 18 C0.01 18.66 -0.98 19.32 -2 20 C-5 13.375 -5 13.375 -5 10 C-5.66 10 -6.32 10 -7 10 C-7.3327958 6.33924624 -7.46170299 4.60499012 -5.1875 1.625 C-3 0 -3 0 0 0 Z " fill="#30B9BC" transform="translate(307,224)"/>
<path d="M0 0 C3.96 0 7.92 0 12 0 C13.13764351 4.26616316 14 7.56486311 14 12 C13.34 12 12.68 12 12 12 C11.34 8.7 10.68 5.4 10 2 C7.69 1.67 5.38 1.34 3 1 C2.74605469 2.07378906 2.49210937 3.14757812 2.23046875 4.25390625 C1.8831341 5.69018198 1.53545967 7.12637556 1.1875 8.5625 C1.02185547 9.26697266 0.85621094 9.97144531 0.68554688 10.69726562 C-0.45695042 15.37503757 -2.07359251 19.57336151 -4 24 C-4.61175042 26.13231526 -5.17806216 28.27845391 -5.6875 30.4375 C-5.93886719 31.48808594 -6.19023437 32.53867188 -6.44921875 33.62109375 C-6.63097656 34.40613281 -6.81273437 35.19117188 -7 36 C-8.75690907 33.41152898 -9.05553714 32.3108358 -8.49609375 29.1796875 C-8.14675781 28.08914062 -7.79742187 26.99859375 -7.4375 25.875 C-7.05980469 24.65296875 -6.68210937 23.4309375 -6.29296875 22.171875 C-5.98045166 21.17704102 -5.98045166 21.17704102 -5.66162109 20.16210938 C-4.44105776 16.17343452 -3.35463428 12.14700175 -2.25 8.125 C-1.81799483 6.5650248 -1.38572716 5.00512225 -0.953125 3.4453125 C-0.63859375 2.30835938 -0.3240625 1.17140625 0 0 Z " fill="#55B4B6" transform="translate(292,212)"/>
<path d="M0 0 C0.99 0.99 1.98 1.98 3 3 C3.66 3 4.32 3 5 3 C5 2.34 5 1.68 5 1 C5.99 1 6.98 1 8 1 C8 9.25 8 17.5 8 26 C7.67 26 7.34 26 7 26 C6.67 21.38 6.34 16.76 6 12 C5.34 12 4.68 12 4 12 C4 12.99 4 13.98 4 15 C2.68 15 1.36 15 0 15 C0 10.05 0 5.1 0 0 Z " fill="#163063" transform="translate(143,244)"/>
<path d="M0 0 C0.33 0 0.66 0 1 0 C1.49939956 6.8349194 -0.34326526 12.83381125 -2.1875 19.375 C-2.50340088 20.52081543 -2.81930176 21.66663086 -3.14477539 22.84716797 C-5.6611131 31.92789261 -8.27392153 40.98007215 -11 50 C-11.33 50 -11.66 50 -12 50 C-12.26844472 44.44972409 -11.37988264 40.07795783 -9.6875 34.8125 C-9.2247204 33.30915958 -8.76379038 31.80524857 -8.3046875 30.30078125 C-8.08006836 29.56939941 -7.85544922 28.83801758 -7.62402344 28.08447266 C-5.74996553 21.82441536 -4.30103775 15.45014993 -2.9375 9.0625 C-2.2500539 5.88522809 -1.34330082 2.97445183 0 0 Z " fill="#50B0B4" transform="translate(335,217)"/>
<path d="M0 0 C0.33 0.99 0.66 1.98 1 3 C-1.49064888 3.68707555 -3.37886292 4 -6 4 C-7.39300182 5.95890881 -8.72245446 7.9639118 -10 10 C-11.75 11.875 -11.75 11.875 -13 13 C-14.98 12.34 -16.96 11.68 -19 11 C-19 9.35 -19 7.7 -19 6 C-17.35 6 -15.7 6 -14 6 C-14 5.34 -14 4.68 -14 4 C-4.58997722 -0.59225513 -4.58997722 -0.59225513 0 0 Z " fill="#172B59" transform="translate(202,230)"/>
<path d="M0 0 C0 2.97 0 5.94 0 9 C-7.92 9 -15.84 9 -24 9 C-24 8.34 -24 7.68 -24 7 C-16.34916042 5.75088333 -8.72559014 5.90946574 -1 6 C-1 4.68 -1 3.36 -1 2 C-7.6 2 -14.2 2 -21 2 C-21 1.67 -21 1.34 -21 1 C-17.87504511 0.83248032 -14.75002908 0.66612942 -11.625 0.5 C-10.73554688 0.45230469 -9.84609375 0.40460938 -8.9296875 0.35546875 C-7.65351563 0.28779297 -7.65351563 0.28779297 -6.3515625 0.21875 C-5.56604004 0.17685547 -4.78051758 0.13496094 -3.97119141 0.09179688 C-2.64854076 0.03020205 -1.32408408 0 0 0 Z " fill="#1B2A4A" transform="translate(176,212)"/>
<path d="M0 0 C0.66 0.33 1.32 0.66 2 1 C0.87026829 7.47028159 -0.70687374 13.70680454 -2.5625 20 C-2.78446045 20.754021 -3.0064209 21.50804199 -3.23510742 22.28491211 C-4.86159439 27.72318877 -4.86159439 27.72318877 -6 30 C-9.96 30 -13.92 30 -18 30 C-21.42857143 20.42857143 -21.42857143 20.42857143 -21 16 C-18.6870518 18.3129482 -18.50419025 19.47904875 -17.875 22.625 C-17.70742188 23.44226563 -17.53984375 24.25953125 -17.3671875 25.1015625 C-17.18542969 26.04128906 -17.18542969 26.04128906 -17 27 C-15.54207116 27.05399736 -14.08357288 27.09279177 -12.625 27.125 C-11.81289063 27.14820313 -11.00078125 27.17140625 -10.1640625 27.1953125 C-7.78657757 27.21370051 -7.78657757 27.21370051 -6 25 C-5.51852744 23.00532798 -5.05002893 21.0067953 -4.640625 18.99609375 C-3.81159693 15.11887098 -2.84511552 11.28146606 -1.875 7.4375 C-1.69211426 6.71030762 -1.50922852 5.98311523 -1.32080078 5.23388672 C-0.8815658 3.48899772 -0.44093128 1.74446112 0 0 Z " fill="#52AFB0" transform="translate(292,240)"/>
<path d="M0 0 C0.66 0 1.32 0 2 0 C0.69840449 4.57244431 -1.07552901 7.841016 -3.9375 11.625 C-4.62714844 12.54539063 -5.31679687 13.46578125 -6.02734375 14.4140625 C-6.67832031 15.26742187 -7.32929687 16.12078125 -8 17 C-9.00071306 18.33279824 -10.00100241 19.66591545 -11 21 C-11.75 17.8125 -11.75 17.8125 -12 14 C-10.0625 11.0625 -10.0625 11.0625 -8 9 C-9.32 9.33 -10.64 9.66 -12 10 C-11.9375 8.1875 -11.9375 8.1875 -11 6 C-7.625 4.1875 -7.625 4.1875 -4 3 C-3.01 3.33 -2.02 3.66 -1 4 C-0.67 2.68 -0.34 1.36 0 0 Z " fill="#E9F9FB" transform="translate(110,236)"/>
<path d="M0 0 C0.33 0 0.66 0 1 0 C1.33 1.98 1.66 3.96 2 6 C2.33 6 2.66 6 3 6 C3.02505615 6.8878418 3.0501123 7.77568359 3.07592773 8.69042969 C3.17121797 11.99296037 3.27044207 15.29532459 3.37231445 18.59765625 C3.41555318 20.02534388 3.45723585 21.45307954 3.49731445 22.88085938 C3.55528602 24.93634496 3.61890175 26.99159128 3.68359375 29.046875 C3.72025146 30.28276367 3.75690918 31.51865234 3.79467773 32.79199219 C3.95979819 35.37187658 4.2464387 37.54355106 5 40 C3.35 40 1.7 40 0 40 C-1.28236341 36.15290977 -1.01501341 32.60987329 -0.87890625 28.61328125 C-0.85529526 27.79627243 -0.83168427 26.97926361 -0.80735779 26.13749695 C-0.73080782 23.52898407 -0.64674628 20.92077456 -0.5625 18.3125 C-0.50927063 16.54363462 -0.45653028 14.77475445 -0.40429688 13.00585938 C-0.27520441 8.67038094 -0.13937489 4.33515957 0 0 Z " fill="#D7F1F2" transform="translate(82,208)"/>
<path d="M0 0 C1.28797438 3.21993596 0.88845072 5.73823767 -0.12890625 9.0078125 C-1.53675149 12.22754825 -3.58869587 14.9766424 -5.6015625 17.84375 C-7.28453551 20.43872514 -8.23357628 23.01094748 -9 26 C-9.96885329 23.38409611 -10.15595491 22.35089855 -9 19.75 C-7.58149215 15.84910342 -8.31048739 13.06812439 -9 9 C-7.68 8.67 -6.36 8.34 -5 8 C-4.67 6.68 -4.34 5.36 -4 4 C-3.01 4 -2.02 4 -1 4 C-0.67 2.68 -0.34 1.36 0 0 Z " fill="#32B8BA" transform="translate(114,239)"/>
<path d="M0 0 C-1.7379532 5.68784683 -5.21183258 7.80788839 -10 11 C-11.32 11 -12.64 11 -14 11 C-14 10.34 -14 9.68 -14 9 C-12.88625 8.5875 -11.7725 8.175 -10.625 7.75 C-8.00679305 6.64453484 -7.16506911 6.25119213 -5.5625 3.8125 C-5.376875 3.214375 -5.19125 2.61625 -5 2 C-8.50901158 3.3508257 -8.50901158 3.3508257 -11.8125 5.125 C-15.16436068 6.46574427 -18.47071021 6.48221979 -22 6 C-25 4.5 -25 4.5 -27 3 C-26.67 2.34 -26.34 1.68 -26 1 C-24.515 1.99 -24.515 1.99 -23 3 C-18.83134374 3.60109837 -15.15013145 3.69007887 -11.5 1.5 C-7.78591352 -0.72845189 -4.22914816 -0.24877342 0 0 Z " fill="#4FB0B2" transform="translate(442,259)"/>
<path d="M0 0 C0.66 0 1.32 0 2 0 C1.59288789 2.36125026 1.34271128 3.67963945 -0.4375 5.34375 C-2.3325661 7.35252006 -2.88749896 9.05892515 -3.6875 11.6875 C-3.93886719 12.49574219 -4.19023438 13.30398438 -4.44921875 14.13671875 C-4.63097656 14.75160156 -4.81273437 15.36648438 -5 16 C-9.09341499 16.02469575 -13.18680121 16.04285793 -17.28027344 16.05493164 C-18.67318477 16.0599643 -20.0660908 16.06679098 -21.45898438 16.07543945 C-23.45961246 16.08755152 -25.46027888 16.09270412 -27.4609375 16.09765625 C-28.66540527 16.10289307 -29.86987305 16.10812988 -31.11083984 16.11352539 C-34 16 -34 16 -36 15 C-36.8515625 12.49609375 -36.8515625 12.49609375 -37.625 9.4375 C-37.88539062 8.42558594 -38.14578125 7.41367187 -38.4140625 6.37109375 C-38.60742188 5.58863281 -38.80078125 4.80617187 -39 4 C-38.34 4 -37.68 4 -37 4 C-36.32880451 5.4562545 -35.66318193 6.91507867 -35 8.375 C-34.443125 9.59316406 -34.443125 9.59316406 -33.875 10.8359375 C-33 13 -33 13 -33 15 C-24.09 15 -15.18 15 -6 15 C-5.67 12.69 -5.34 10.38 -5 8 C-3.87890625 5.56640625 -3.87890625 5.56640625 -2.5625 3.5625 C-2.13066406 2.88316406 -1.69882813 2.20382813 -1.25390625 1.50390625 C-0.63322266 0.75947266 -0.63322266 0.75947266 0 0 Z " fill="#52AFAE" transform="translate(104,249)"/>
<path d="M0 0 C5.44001534 2.79352139 7.21772419 5.7355174 9.1875 11.4375 C10 15 10 15 10 21 C-0.56 21 -11.12 21 -22 21 C-22 20.67 -22 20.34 -22 20 C-12.43 19.67 -2.86 19.34 7 19 C8.12525742 15.62422775 7.87828528 14.72141708 6.8125 11.4375 C6.57144531 10.65246094 6.33039063 9.86742187 6.08203125 9.05859375 C4.75361819 6.53125193 3.53512062 6.16257047 1 5 C0.25 2.375 0.25 2.375 0 0 Z " fill="#5BB1B5" transform="translate(434,230)"/>
<path d="M0 0 C2.86632944 2.86632944 3.2315668 6.29316426 4.125 10.125 C4.30675781 10.87910156 4.48851562 11.63320312 4.67578125 12.41015625 C5.12354709 14.27191946 5.56260722 16.13577253 6 18 C5.01 18 4.02 18 3 18 C2.34 17.34 1.68 16.68 1 16 C1 15.01 1 14.02 1 13 C0.34 13 -0.32 13 -1 13 C-1.66 14.65 -2.32 16.3 -3 18 C-3.66 18 -4.32 18 -5 18 C-4.35702496 15.37426939 -3.71075589 12.74942697 -3.0625 10.125 C-2.88009766 9.37863281 -2.69769531 8.63226563 -2.50976562 7.86328125 C-1.11328125 2.2265625 -1.11328125 2.2265625 0 0 Z " fill="#E7FAF9" transform="translate(298,228)"/>
<path d="M0 0 C0.66 0.33 1.32 0.66 2 1 C1.67 1.99 1.34 2.98 1 4 C1.99 3.67 2.98 3.34 4 3 C4.33 3.66 4.66 4.32 5 5 C5.66 4.34 6.32 3.68 7 3 C8.53166168 7.08443115 7.63081652 10.79455657 7 15 C6.7525 14.360625 6.505 13.72125 6.25 13.0625 C5.19352316 10.81723287 5.19352316 10.81723287 2.9375 10.3125 C1.9784375 10.1578125 1.9784375 10.1578125 1 10 C0.67 9.67 0.34 9.34 0 9 C-0.66 11.64 -1.32 14.28 -2 17 C-2.33 17 -2.66 17 -3 17 C-3.55353075 5.47835991 -3.55353075 5.47835991 0 0 Z " fill="#273A64" transform="translate(182,237)"/>
<path d="M0 0 C6.27 0 12.54 0 19 0 C18.01 0.495 18.01 0.495 17 1 C17.33 1.66 17.66 2.32 18 3 C18.1875 6 18.1875 6 18 9 C17.34 9.66 16.68 10.32 16 11 C15.34 10.34 14.68 9.68 14 9 C14.66 9 15.32 9 16 9 C16 7.68 16 6.36 16 5 C8.74 4.67 1.48 4.34 -6 4 C-6 3.67 -6 3.34 -6 3 C-1.05 2.67 3.9 2.34 9 2 C6.03 1.67 3.06 1.34 0 1 C0 0.67 0 0.34 0 0 Z " fill="#DBF6F7" transform="translate(79,283)"/>
<path d="M0 0 C0.33 0.99 0.66 1.98 1 3 C1.66 3 2.32 3 3 3 C3 6.63 3 10.26 3 14 C1.35 13.67 -0.3 13.34 -2 13 C-4.20465116 6.63100775 -4.20465116 6.63100775 -3.25 3.6875 C-2 2 -2 2 0 0 Z " fill="#F8FBFD" transform="translate(74,229)"/>
<path d="M0 0 C-0.33 1.32 -0.66 2.64 -1 4 C0.65 4 2.3 4 4 4 C4 6.31 4 8.62 4 11 C2 9 2 9 1 6 C-3.47427924 5.91051442 -7.60563789 6.14256349 -12 7 C-11.8125 5.1875 -11.8125 5.1875 -11 3 C-7.33874929 0.07099943 -4.6175429 -0.32215416 0 0 Z " fill="#5CB3B3" transform="translate(103,226)"/>
<path d="M0 0 C2.64 0 5.28 0 8 0 C8 0.33 8 0.66 8 1 C6.02 1.33 4.04 1.66 2 2 C1.67 14.87 1.34 27.74 1 41 C2.98 40.34 4.96 39.68 7 39 C7.33 37.35 7.66 35.7 8 34 C8.33 34 8.66 34 9 34 C9 36.64 9 39.28 9 42 C6.03 42 3.06 42 0 42 C0 28.14 0 14.28 0 0 Z " fill="#58AAAD" transform="translate(345,228)"/>
<path d="M0 0 C0.33 0.66 0.66 1.32 1 2 C-1.64 2.33 -4.28 2.66 -7 3 C-7.268125 3.804375 -7.53625 4.60875 -7.8125 5.4375 C-8.204375 6.283125 -8.59625 7.12875 -9 8 C-9.99 8.33 -10.98 8.66 -12 9 C-12.66 8.67 -13.32 8.34 -14 8 C-14 6.68 -14 5.36 -14 4 C-17.3 4 -20.6 4 -24 4 C-24.33 5.98 -24.66 7.96 -25 10 C-25.33 10 -25.66 10 -26 10 C-26.125 7.125 -26.125 7.125 -26 4 C-24 2 -24 2 -21.9765625 1.76953125 C-21.20054687 1.78371094 -20.42453125 1.79789063 -19.625 1.8125 C-18.85414063 1.81894531 -18.08328125 1.82539063 -17.2890625 1.83203125 C-15 2 -15 2 -12.89453125 2.6015625 C-8.63360336 3.49767517 -4.85883524 -0.42872076 0 0 Z " fill="#E4FAFA" transform="translate(352,208)"/>
<path d="M0 0 C0.99 0 1.98 0 3 0 C3 7.92 3 15.84 3 24 C2.67 24 2.34 24 2 24 C1.67 27.3 1.34 30.6 1 34 C0.67 34 0.34 34 0 34 C0 22.78 0 11.56 0 0 Z " fill="#68C1C8" transform="translate(78,208)"/>
<path d="M0 0 C1.39120471 0.00015906 2.78241534 0.00585033 4.17358398 0.01586914 C4.90463852 0.01728409 5.63569305 0.01869904 6.38890076 0.02015686 C8.73253406 0.02577131 11.07607313 0.03832617 13.41967773 0.05102539 C15.00496282 0.05603853 16.59024939 0.06060176 18.17553711 0.06469727 C22.06945383 0.07574542 25.96329979 0.09301967 29.85717773 0.11352539 C29.85717773 2.09352539 29.85717773 4.07352539 29.85717773 6.11352539 C29.19717773 6.11352539 28.53717773 6.11352539 27.85717773 6.11352539 C27.52717773 4.79352539 27.19717773 3.47352539 26.85717773 2.11352539 C17.94717773 2.11352539 9.03717773 2.11352539 -0.14282227 2.11352539 C-0.47282227 3.43352539 -0.80282227 4.75352539 -1.14282227 6.11352539 C-2.13282227 6.11352539 -3.12282227 6.11352539 -4.14282227 6.11352539 C-4.18554327 4.44740634 -4.18346059 2.77969654 -4.14282227 1.11352539 C-3.14282227 0.11352539 -3.14282227 0.11352539 0 0 Z " fill="#5BAFAE" transform="translate(71.142822265625,275.886474609375)"/>
<path d="M0 0 C5.61 0 11.22 0 17 0 C17 0.99 17 1.98 17 3 C12.37146715 5.31426642 6.18737222 4.32755096 1.375 3 C0.59125 2.67 -0.1925 2.34 -1 2 C-0.67 1.34 -0.34 0.68 0 0 Z " fill="#30BABE" transform="translate(76,288)"/>
<path d="M0 0 C7.26 0 14.52 0 22 0 C22 0.66 22 1.32 22 2 C19.22276075 2.78688445 16.77389923 3.11949924 13.890625 3.09765625 C13.13652344 3.09443359 12.38242188 3.09121094 11.60546875 3.08789062 C10.82816406 3.07951172 10.05085937 3.07113281 9.25 3.0625 C8.45722656 3.05798828 7.66445312 3.05347656 6.84765625 3.04882812 C4.89840492 3.03708565 2.94919262 3.01915146 1 3 C0.67 2.01 0.34 1.02 0 0 Z " fill="#283354" transform="translate(151,237)"/>
<path d="M0 0 C1.8871875 0.061875 1.8871875 0.061875 3.8125 0.125 C3.8125 3.095 3.8125 6.065 3.8125 9.125 C3.4825 9.125 3.1525 9.125 2.8125 9.125 C2.8125 6.485 2.8125 3.845 2.8125 1.125 C2.1525 1.125 1.4925 1.125 0.8125 1.125 C0.68875 1.929375 0.565 2.73375 0.4375 3.5625 C0.23125 4.408125 0.025 5.25375 -0.1875 6.125 C-1.1775 6.62 -1.1775 6.62 -2.1875 7.125 C-2.5175 7.785 -2.8475 8.445 -3.1875 9.125 C-3.5175 8.135 -3.8475 7.145 -4.1875 6.125 C-5.5075 6.125 -6.8275 6.125 -8.1875 6.125 C-7.875 4.25 -7.875 4.25 -7.1875 2.125 C-4.09861478 0.06574319 -3.47814073 -0.1140374 0 0 Z " fill="#1A3159" transform="translate(251.1875,226.875)"/>
<path d="M0 0 C0.99 0.495 0.99 0.495 2 1 C2.625 3.5625 2.625 3.5625 3 6 C4.65 5.34 6.3 4.68 8 4 C8 4.99 8 5.98 8 7 C14.27 7 20.54 7 27 7 C27.33 5.68 27.66 4.36 28 3 C28.66 3.33 29.32 3.66 30 4 C29.67 5.32 29.34 6.64 29 8 C20.09 8 11.18 8 2 8 C0 3 0 3 0 0 Z " fill="#DCFBFC" transform="translate(69,256)"/>
<path d="M0 0 C1.78409802 3.06246747 2.22880021 5.22079273 2.125 8.75 C2.10695313 9.54921875 2.08890625 10.3484375 2.0703125 11.171875 C2.03550781 12.07679688 2.03550781 12.07679688 2 13 C0.02 13.99 0.02 13.99 -2 15 C-2.33 10.71 -2.66 6.42 -3 2 C-2.01 1.34 -1.02 0.68 0 0 Z " fill="#FBFDFB" transform="translate(58,222)"/>
<path d="M0 0 C0.99 0.33 1.98 0.66 3 1 C3 5.62 3 10.24 3 15 C2.34 14.34 1.68 13.68 1 13 C1 13.99 1 14.98 1 16 C0.01 16 -0.98 16 -2 16 C-1.42978066 10.6496441 -0.79265639 5.32212148 0 0 Z " fill="#FCFCFC" transform="translate(110,216)"/>
<path d="M0 0 C2.06790887 3.10186331 2.93293355 5.63200125 4 9.1875 C4.34675781 10.3425 4.69351562 11.4975 5.05078125 12.6875 C5.81271254 15.34642071 6.53076018 18.00128599 7.1875 20.6875 C7.83456203 23.85351313 7.83456203 23.85351313 9 26 C8.01 26.33 7.02 26.66 6 27 C3.54970669 21.28264895 2.66733709 17.20970773 3 11 C2.34 11 1.68 11 1 11 C0.67 7.37 0.34 3.74 0 0 Z " fill="#50B5B5" transform="translate(272,229)"/>
<path d="M0 0 C11.55 0 23.1 0 35 0 C35 3.96 35 7.92 35 12 C33.68 12.33 32.36 12.66 31 13 C31.66 12.01 32.32 11.02 33 10 C33.33 7.03 33.66 4.06 34 1 C22.78 1 11.56 1 0 1 C0 0.67 0 0.34 0 0 Z " fill="#BFE9EC" transform="translate(363,227)"/>
<path d="M0 0 C1.32 0.66 2.64 1.32 4 2 C2.02 2.99 2.02 2.99 0 4 C0 10.27 0 16.54 0 23 C-0.66 22.67 -1.32 22.34 -2 22 C-2.05807043 18.89591193 -2.09361914 15.7919636 -2.125 12.6875 C-2.14175781 11.80642578 -2.15851563 10.92535156 -2.17578125 10.01757812 C-2.18222656 9.17001953 -2.18867187 8.32246094 -2.1953125 7.44921875 C-2.20578613 6.66893311 -2.21625977 5.88864746 -2.22705078 5.0847168 C-2 3 -2 3 0 0 Z " fill="#42B3B4" transform="translate(88,204)"/>
<path d="M0 0 C0.66 0 1.32 0 2 0 C2 0.66 2 1.32 2 2 C2.66 2 3.32 2 4 2 C3.95875 2.7425 3.9175 3.485 3.875 4.25 C4.01424898 7.98338627 4.01424898 7.98338627 6 11 C9.44112984 11.94047828 12.74600615 12.62699692 16 11 C16 11.99 16 12.98 16 14 C12.04 14 8.08 14 4 14 C2.13459373 9.29593201 0.63156995 5.05255964 0 0 Z " fill="#4EAFAE" transform="translate(307,256)"/>
<path d="M0 0 C0.66 0 1.32 0 2 0 C0.49767891 3.44511328 -1.52405659 5.87002875 -4.0625 8.625 C-6.85780458 11.58789167 -6.85780458 11.58789167 -9 15 C-4.05 15 0.9 15 6 15 C6 15.33 6 15.66 6 16 C0.72 16 -4.56 16 -10 16 C-10 14.02 -10 12.04 -10 10 C-9.01 10 -8.02 10 -7 10 C-6.731875 9.195625 -6.46375 8.39125 -6.1875 7.5625 C-5.795625 6.716875 -5.40375 5.87125 -5 5 C-4.01 4.67 -3.02 4.34 -2 4 C-0.79117904 1.99983534 -0.79117904 1.99983534 0 0 Z " fill="#65B5BA" transform="translate(386,246)"/>
<path d="M0 0 C0.165 0.639375 0.33 1.27875 0.5 1.9375 C1.781786 4.16119241 1.781786 4.16119241 3.9140625 4.48828125 C5.93575155 4.7275978 7.96841939 4.86893028 10 5 C9.67 5.66 9.34 6.32 9 7 C8.34 7 7.68 7 7 7 C7 7.99 7 8.98 7 10 C8.32 10 9.64 10 11 10 C11 10.66 11 11.32 11 12 C8.03 12 5.06 12 2 12 C2.33 10.68 2.66 9.36 3 8 C3.99 7.67 4.98 7.34 6 7 C5.195625 6.855625 4.39125 6.71125 3.5625 6.5625 C1 6 1 6 0 5 C-0.04063832 3.33382885 -0.042721 1.66611905 0 0 Z " fill="#DAF6F7" transform="translate(343,216)"/>
<path d="M0 0 C1.32 0.33 2.64 0.66 4 1 C4 6.94 4 12.88 4 19 C3.01 19 2.02 19 1 19 C1.33 14.38 1.66 9.76 2 5 C1.34 4.67 0.68 4.34 0 4 C0 2.66666667 0 1.33333333 0 0 Z " fill="#3A4767" transform="translate(147,219)"/>
<path d="M0 0 C2.0625 0.4375 2.0625 0.4375 4 1 C4.12375 1.639375 4.2475 2.27875 4.375 2.9375 C4.684375 3.9584375 4.684375 3.9584375 5 5 C5.66 5.33 6.32 5.66 7 6 C6.34 6 5.68 6 5 6 C5 6.99 5 7.98 5 9 C0.125 8.125 0.125 8.125 -1 7 C-1.125 4 -1.125 4 -1 1 C-0.67 0.67 -0.34 0.34 0 0 Z " fill="#E0F6F7" transform="translate(65,217)"/>
<path d="M0 0 C-0.33 0.99 -0.66 1.98 -1 3 C-13.21 3 -25.42 3 -38 3 C-38 2.67 -38 2.34 -38 2 C-37.12263184 1.97494385 -36.24526367 1.9498877 -35.34130859 1.92407227 C-32.06482809 1.82854616 -28.78850102 1.72933757 -25.51220703 1.62768555 C-24.09818835 1.58455749 -22.68412498 1.54286832 -21.27001953 1.50268555 C-19.2293556 1.4444425 -17.18891205 1.38090859 -15.1484375 1.31640625 C-13.92302246 1.27974854 -12.69760742 1.24309082 -11.43505859 1.20532227 C-7.59610312 0.97585805 -3.82755365 0 0 0 Z " fill="#4BAFB1" transform="translate(104,267)"/>
<path d="M0 0 C0.99 0 1.98 0 3 0 C3 8.25 3 16.5 3 25 C2.67 25 2.34 25 2 25 C1.67 20.38 1.34 15.76 1 11 C0.34 11 -0.32 11 -1 11 C-1.125 3.375 -1.125 3.375 0 0 Z " fill="#525E79" transform="translate(148,245)"/>
<path d="M0 0 C0.33 0.66 0.66 1.32 1 2 C2.32 1.67 3.64 1.34 5 1 C4.55170486 2.98146451 4.09107502 4.96014211 3.625 6.9375 C3.36976563 8.03964844 3.11453125 9.14179688 2.8515625 10.27734375 C2.57054687 11.17582031 2.28953125 12.07429687 2 13 C1.01 13.495 1.01 13.495 0 14 C-0.16947579 12.58366664 -0.33545507 11.16691467 -0.5 9.75 C-0.5928125 8.96109375 -0.685625 8.1721875 -0.78125 7.359375 C-1 5 -1 5 -1 1 C-0.67 0.67 -0.34 0.34 0 0 Z " fill="#31B7BE" transform="translate(293,227)"/>
<path d="M0 0 C1.4540625 0.0309375 1.4540625 0.0309375 2.9375 0.0625 C3.2675 1.7125 3.5975 3.3625 3.9375 5.0625 C1.58311267 6.49194945 0.45717567 7.14911261 -2.3125 6.6875 C-2.89 6.48125 -3.4675 6.275 -4.0625 6.0625 C-4.105221 4.39638095 -4.10313832 2.72867115 -4.0625 1.0625 C-3.0625 0.0625 -3.0625 0.0625 0 0 Z " fill="#29BBBD" transform="translate(350.0625,211.9375)"/>
<path d="M0 0 C0.99 0 1.98 0 3 0 C2.01 2.97 1.02 5.94 0 9 C6.6 9 13.2 9 20 9 C20 9.33 20 9.66 20 10 C16.70880065 10.1964031 13.41703066 10.38060745 10.125 10.5625 C9.18785156 10.61857422 8.25070312 10.67464844 7.28515625 10.73242188 C6.38925781 10.78076172 5.49335938 10.82910156 4.5703125 10.87890625 C3.74289551 10.9260376 2.91547852 10.97316895 2.06298828 11.02172852 C0 11 0 11 -2 10 C-1.85950482 8.52031676 -1.71245174 7.04125484 -1.5625 5.5625 C-1.48128906 4.73878906 -1.40007812 3.91507813 -1.31640625 3.06640625 C-1 1 -1 1 0 0 Z " fill="#57B0B4" transform="translate(413,236)"/>
<path d="M0 0 C5.82558915 0.63321621 11.54193068 1.81468106 17 4 C17.33 4.66 17.66 5.32 18 6 C11.73 5.34 5.46 4.68 -1 4 C-0.67 2.68 -0.34 1.36 0 0 Z " fill="#4AB1B9" transform="translate(79,190)"/>
<path d="M0 0 C2.475 0.495 2.475 0.495 5 1 C5 3.31 5 5.62 5 8 C-1.93 8 -8.86 8 -16 8 C-16 7.67 -16 7.34 -16 7 C-10.39 7 -4.78 7 1 7 C1.372678 2.372678 1.372678 2.372678 0 0 Z " fill="#19253B" transform="translate(168,238)"/>
<path d="M0 0 C1.485 0.99 1.485 0.99 3 2 C3.6875 5.625 3.6875 5.625 4 9 C4.66 9 5.32 9 6 9 C5.67 9.99 5.34 10.98 5 12 C3.35 11.67 1.7 11.34 0 11 C0 7.37 0 3.74 0 0 Z " fill="#2BBABE" transform="translate(64,255)"/>
<path d="M0 0 C0.33 1.32 0.66 2.64 1 4 C-1.64738916 5.4606285 -2.89448334 6 -6 6 C-6 6.66 -6 7.32 -6 8 C-6.99 8.33 -7.98 8.66 -9 9 C-9.66 8.34 -10.32 7.68 -11 7 C-9.87720538 6.01830524 -8.75168527 5.03972702 -7.625 4.0625 C-6.68527344 3.24458984 -6.68527344 3.24458984 -5.7265625 2.41015625 C-3.71547429 0.76761588 -2.62199195 0 0 0 Z " fill="#28375A" transform="translate(194,228)"/>
<path d="M0 0 C-2.34594595 7.37297297 -2.34594595 7.37297297 -4 10 C-4.99 10.33 -5.98 10.66 -7 11 C-7.8125 8.875 -7.8125 8.875 -8 6 C-6.01654547 2.48574653 -4.26162808 0 0 0 Z " fill="#2FB9C4" transform="translate(61,198)"/>
<path d="M0 0 C0.66 0.66 1.32 1.32 2 2 C1.01 3.485 1.01 3.485 0 5 C-0.45601261 7.50896686 -0.45601261 7.50896686 -0.625 10.1875 C-0.69976562 11.08855469 -0.77453125 11.98960937 -0.8515625 12.91796875 C-0.90054688 13.60503906 -0.94953125 14.29210937 -1 15 C-0.34 15 0.32 15 1 15 C0.67 16.32 0.34 17.64 0 19 C-2.27639147 16.72360853 -2.41956684 15.77105117 -3 12.6875 C-3.6939047 9.27304831 -4.55916643 6.19041719 -6 3 C-4.68 3 -3.36 3 -2 3 C-1.34 2.01 -0.68 1.02 0 0 Z " fill="#59BBBF" transform="translate(65,251)"/>
<path d="M0 0 C10.12136149 -0.4271618 18.65172427 -0.52270791 28 4 C24.41044757 5.19651748 23.20200761 4.67029177 19.625 3.625 C13.10151278 1.87849181 6.72861982 1.31472577 0 1 C0 0.67 0 0.34 0 0 Z " fill="#51B2AF" transform="translate(75,187)"/>
<path d="M0 0 C3.4165052 -0.08724706 6.83272313 -0.14047325 10.25 -0.1875 C11.70212891 -0.22520508 11.70212891 -0.22520508 13.18359375 -0.26367188 C14.58544922 -0.27817383 14.58544922 -0.27817383 16.015625 -0.29296875 C16.87446289 -0.3086792 17.73330078 -0.32438965 18.61816406 -0.34057617 C21.51843281 0.07413015 22.8930382 0.99509606 25 3 C25 3.66 25 4.32 25 5 C24.05253906 4.69255859 24.05253906 4.69255859 23.0859375 4.37890625 C15.40532372 2.06586838 7.9960422 1.33851857 0 1 C0 0.67 0 0.34 0 0 Z " fill="#CAF4F2" transform="translate(78,186)"/>
<path d="M0 0 C0.33 0 0.66 0 1 0 C1 1.65 1 3.3 1 5 C1.66 5 2.32 5 3 5 C2.60246179 6.46366342 2.18118616 7.9208935 1.75 9.375 C1.51796875 10.18710937 1.2859375 10.99921875 1.046875 11.8359375 C0 14 0 14 -4 16 C-2.68 10.72 -1.36 5.44 0 0 Z " fill="#E4F9F9" transform="translate(292,247)"/>
<path d="M0 0 C0.66 0 1.32 0 2 0 C2 2.64 2 5.28 2 8 C-1.3 8.33 -4.6 8.66 -8 9 C-7.34 7.68 -6.68 6.36 -6 5 C-5.34 5.33 -4.68 5.66 -4 6 C-3.38125 5.01 -2.7625 4.02 -2.125 3 C-1.42375 2.01 -0.7225 1.02 0 0 Z " fill="#1C2A50" transform="translate(252,228)"/>
<path d="M0 0 C0 1.32 0 2.64 0 4 C-1.43410368 4.24954005 -2.87260072 4.47392642 -4.3125 4.6875 C-5.11300781 4.81511719 -5.91351563 4.94273437 -6.73828125 5.07421875 C-9 5 -9 5 -10.79296875 3.51953125 C-11.19128906 3.01808594 -11.58960937 2.51664063 -12 2 C-10.56656 1.46809459 -9.12804633 0.94984742 -7.6875 0.4375 C-6.48673828 0.00244141 -6.48673828 0.00244141 -5.26171875 -0.44140625 C-3 -1 -3 -1 0 0 Z " fill="#2EBABF" transform="translate(77,191)"/>
<path d="M0 0 C1.49080078 0.02707031 1.49080078 0.02707031 3.01171875 0.0546875 C3.77097656 0.07789063 4.53023437 0.10109375 5.3125 0.125 C0.90664185 3.74409777 -2.31968198 4.26141866 -7.9375 4.1875 C-8.82953125 4.17847656 -9.7215625 4.16945313 -10.640625 4.16015625 C-11.31609375 4.14855469 -11.9915625 4.13695312 -12.6875 4.125 C-11.7903125 3.691875 -11.7903125 3.691875 -10.875 3.25 C-4.35625 -0.1025 -4.35625 -0.1025 0 0 Z " fill="#3C4865" transform="translate(207.6875,266.875)"/>
<path d="M0 0 C0.66 0 1.32 0 2 0 C2.28875 1.134375 2.5775 2.26875 2.875 3.4375 C3.24625 4.613125 3.6175 5.78875 4 7 C4.66 7.33 5.32 7.66 6 8 C6 11.63 6 15.26 6 19 C3.62400281 15.43600422 2.84268195 11.91618826 1.875 7.8125 C1.69324219 7.06291016 1.51148438 6.31332031 1.32421875 5.54101562 C0.87748314 3.69529219 0.4380306 1.84780868 0 0 Z " fill="#DFF9F9" transform="translate(270,219)"/>
<path d="M0 0 C0.33 0 0.66 0 1 0 C1 7.26 1 14.52 1 22 C0.01 21.67 -0.98 21.34 -2 21 C-1.01 10.605 -1.01 10.605 0 0 Z " fill="#1C2742" transform="translate(149,248)"/>
<path d="M0 0 C2 1.375 2 1.375 4 3 C4 3.66 4 4.32 4 5 C3.34 5 2.68 5 2 5 C2.33 5.99 2.66 6.98 3 8 C2.34 8 1.68 8 1 8 C0.67 8.99 0.34 9.98 0 11 C-0.66 11 -1.32 11 -2 11 C-2.19622241 6.78121808 -1.80230168 3.82989106 0 0 Z " fill="#2CBDC2" transform="translate(51,208)"/>
<path d="M0 0 C0.61875 0.639375 1.2375 1.27875 1.875 1.9375 C5.68314606 5.63364176 9.08297653 5.11910303 14.125 5.0625 C15.25615234 5.05573242 15.25615234 5.05573242 16.41015625 5.04882812 C18.27347127 5.03703499 20.13674555 5.01909942 22 5 C22.33 5.66 22.66 6.32 23 7 C15.74 7 8.48 7 1 7 C0.67 4.69 0.34 2.38 0 0 Z " fill="#DFFAFB" transform="translate(71,288)"/>
<path d="M0 0 C0.66 0.33 1.32 0.66 2 1 C1.39891424 6.65020618 -0.07528683 11.66164461 -2 17 C-2.33 17 -2.66 17 -3 17 C-3.55353075 5.47835991 -3.55353075 5.47835991 0 0 Z " fill="#273655" transform="translate(182,237)"/>
<path d="M0 0 C0.804375 0.144375 1.60875 0.28875 2.4375 0.4375 C6.61359481 1.09688339 10.79598059 1.56091353 15 2 C15 2.66 15 3.32 15 4 C10.71 4 6.42 4 2 4 C1.34 2.68 0.68 1.36 0 0 Z " fill="#5CBBBB" transform="translate(75,290)"/>
<path d="M0 0 C3.94668612 3.59292153 5.7544269 7.98661348 6.1875 13.30078125 C6.1875 15.20154866 6.10168102 17.10195424 6 19 C3.50695845 15.26043767 3.59819443 12.56885393 3.34375 8.1796875 C3.17359375 7.10074219 3.17359375 7.10074219 3 6 C2.34 5.67 1.68 5.34 1 5 C0.375 2.4375 0.375 2.4375 0 0 Z " fill="#434C68" transform="translate(217,234)"/>
<path d="M0 0 C0.66 0 1.32 0 2 0 C6.59225513 13.6332574 6.59225513 13.6332574 6 20 C3.75461966 16.15655618 2.8973264 12.0361981 1.875 7.75 C1.69324219 7.00492188 1.51148438 6.25984375 1.32421875 5.4921875 C0.87852501 3.6624974 0.43868041 1.83138425 0 0 Z " fill="#DBF9F9" transform="translate(305,218)"/>
<path d="M0 0 C0.33 0 0.66 0 1 0 C1.9640592 7.59196617 1.9640592 7.59196617 -0.78125 11.6015625 C-2.7841985 13.8231427 -4.82545479 15.94680218 -7 18 C-7.66 17.67 -8.32 17.34 -9 17 C-8.21654285 15.82780457 -7.42297164 14.66236332 -6.625 13.5 C-6.18414062 12.8503125 -5.74328125 12.200625 -5.2890625 11.53125 C-4.65097656 10.77328125 -4.65097656 10.77328125 -4 10 C-3.34 10 -2.68 10 -2 10 C-1.34 6.7 -0.68 3.4 0 0 Z " fill="#4AB0B1" transform="translate(396,228)"/>
<path d="M0 0 C1.98 1.65 3.96 3.3 6 5 C5.67 5.99 5.34 6.98 5 8 C2.625 7.8125 2.625 7.8125 0 7 C-1.3125 4.4375 -1.3125 4.4375 -2 2 C-1.34 2 -0.68 2 0 2 C0 1.34 0 0.68 0 0 Z " fill="#5AADB0" transform="translate(70,215)"/>
<path d="M0 0 C0.33 0 0.66 0 1 0 C0.93976506 2.08412907 0.85091679 4.16744435 0.75 6.25 C0.70359375 7.41015625 0.6571875 8.5703125 0.609375 9.765625 C-0.08791275 13.46661382 -1.11785184 14.67122429 -4 17 C-3.52294177 14.72872279 -3.04328294 12.45799168 -2.5625 10.1875 C-2.29566406 8.92292969 -2.02882813 7.65835938 -1.75390625 6.35546875 C-1 3 -1 3 0 0 Z " fill="#D8F6F7" transform="translate(332,235)"/>
<path d="M0 0 C1.98 0 3.96 0 6 0 C6.33 0.99 6.66 1.98 7 3 C5.71073008 3.36279456 4.41846728 3.71496698 3.125 4.0625 C2.04605469 4.35833984 2.04605469 4.35833984 0.9453125 4.66015625 C-1 5 -1 5 -3 4 C-3 3.34 -3 2.68 -3 2 C-2.01 2 -1.02 2 0 2 C0 1.34 0 0.68 0 0 Z " fill="#49B2B3" transform="translate(75,203)"/>
<path d="M0 0 C0.66 0.99 1.32 1.98 2 3 C0.824375 4.546875 0.824375 4.546875 -0.375 6.125 C-2.64396852 9.28098738 -3.98535871 12.21815519 -5 16 C-6.18771723 12.57056481 -5.80226223 10.62215325 -4.5625 7.25 C-4.27503906 6.45078125 -3.98757812 5.6515625 -3.69140625 4.828125 C-3.46324219 4.22484375 -3.23507813 3.6215625 -3 3 C-2.34 3 -1.68 3 -1 3 C-0.67 2.01 -0.34 1.02 0 0 Z " fill="#4FB2B8" transform="translate(110,249)"/>
<path d="M0 0 C0.99 0 1.98 0 3 0 C4.125 6.75 4.125 6.75 3 9 C2.34 9 1.68 9 1 9 C-0.4783226 6.04335481 -0.06032783 3.25770263 0 0 Z " fill="#FCF9FB" transform="translate(90,234)"/>
<path d="M0 0 C1.875 0.1875 1.875 0.1875 4 1 C5.25 3.5625 5.25 3.5625 6 6 C5.01 5.67 4.02 5.34 3 5 C3 5.99 3 6.98 3 8 C2.34 8 1.68 8 1 8 C-1.125 3.375 -1.125 3.375 0 0 Z " fill="#152A55" transform="translate(209,231)"/>
<path d="M0 0 C2.66685285 1.33342642 2.95622999 2.19877108 4 5 C4.2952194 7.77394833 4.50712231 10.4700511 4.625 13.25 C4.66367187 13.99507812 4.70234375 14.74015625 4.7421875 15.5078125 C4.83605108 17.3381524 4.91909718 19.16904143 5 21 C3.42118051 18.17340381 2.73170945 15.97076138 2.5 12.75 C2.097048 8.33218077 1.16649905 4.27716317 0 0 Z " fill="#3FB5B5" transform="translate(263,226)"/>
<path d="M0 0 C1.95901454 0.11382653 3.9172338 0.24141125 5.875 0.375 C6.96554687 0.44460938 8.05609375 0.51421875 9.1796875 0.5859375 C12 1 12 1 14 3 C12.04174127 3.02694851 10.08337774 3.04637218 8.125 3.0625 C7.03445313 3.07410156 5.94390625 3.08570313 4.8203125 3.09765625 C2 3 2 3 0 2 C0 1.34 0 0.68 0 0 Z " fill="#67BEC1" transform="translate(416,268)"/>
<path d="M0 0 C1.9451 2.91765 2.45276317 4.62537285 3 8 C1.68 8.99 0.36 9.98 -1 11 C-3.125 6.375 -3.125 6.375 -2 3 C-2 3.66 -2 4.32 -2 5 C-1.34 5 -0.68 5 0 5 C0 3.35 0 1.7 0 0 Z " fill="#44B7C0" transform="translate(313,248)"/>
<path d="M0 0 C0.33 0.99 0.66 1.98 1 3 C-0.3125 5.1875 -0.3125 5.1875 -2 7 C-2.66 7 -3.32 7 -4 7 C-4 7.99 -4 8.98 -4 10 C-5.98 10.66 -7.96 11.32 -10 12 C-9.61328125 11.55269531 -9.2265625 11.10539063 -8.828125 10.64453125 C-5.81609925 7.1478974 -2.85678969 3.62592537 0 0 Z " fill="#5EB1B3" transform="translate(380,242)"/>
<path d="M0 0 C2.15473199 1.5801368 4.10646634 3.10646634 6 5 C5.01 6.485 5.01 6.485 4 8 C4 8.66 4 9.32 4 10 C3.01 9.67 2.02 9.34 1 9 C1 8.34 1 7.68 1 7 C0.34 6.67 -0.32 6.34 -1 6 C-0.34 6 0.32 6 1 6 C0.67 4.02 0.34 2.04 0 0 Z " fill="#3EBBC2" transform="translate(56,241)"/>
<path d="M0 0 C-0.4794463 4.21912747 -1.16625119 6.79663178 -4 10 C-4.6875 6.6875 -4.6875 6.6875 -5 3 C-3.42599605 0.67647035 -2.82844233 0 0 0 Z " fill="#EEFBF9" transform="translate(103,247)"/>
<path d="M0 0 C0.66 0 1.32 0 2 0 C2.33 1.32 2.66 2.64 3 4 C2.34 4 1.68 4 1 4 C0.34 5.65 -0.32 7.3 -1 9 C-1.66 9 -2.32 9 -3 9 C-2.69181644 7.68647977 -2.37832335 6.37420428 -2.0625 5.0625 C-1.88847656 4.33160156 -1.71445312 3.60070312 -1.53515625 2.84765625 C-1 1 -1 1 0 0 Z M3 2 C3.66 2 4.32 2 5 2 C4.67 3.65 4.34 5.3 4 7 C3 3.125 3 3.125 3 2 Z " fill="#ECFAFA" transform="translate(296,237)"/>
<path d="M0 0 C2 3 2 3 2 6 C2.33 6.99 2.66 7.98 3 9 C1.68 9 0.36 9 -1 9 C-1 7.68 -1 6.36 -1 5 C-1.99 5 -2.98 5 -4 5 C-4 4.34 -4 3.68 -4 3 C-2 1.375 -2 1.375 0 0 Z " fill="#162A53" transform="translate(210,258)"/>
<path d="M0 0 C0.33 0 0.66 0 1 0 C1 4.62 1 9.24 1 14 C0.34 14 -0.32 14 -1 14 C-1.33 14.66 -1.66 15.32 -2 16 C-3.3805087 12.23331402 -2.59568159 9.55210827 -1.5625 5.75 C-1.27503906 4.67234375 -0.98757813 3.5946875 -0.69140625 2.484375 C-0.46324219 1.66453125 -0.23507812 0.8446875 0 0 Z " fill="#D5F5F4" transform="translate(327,252)"/>
<path d="M0 0 C0.99 0.66 1.98 1.32 3 2 C1.71034824 3.37562854 0.37310707 4.70766393 -1 6 C-1.66 6 -2.32 6 -3 6 C-3.33 7.32 -3.66 8.64 -4 10 C-4.99 10 -5.98 10 -7 10 C-5.33248852 6.05860922 -2.77289351 3.2107188 0 0 Z " fill="#E2FAFB" transform="translate(384,251)"/>
<path d="M0 0 C0 2.97 0 5.94 0 9 C-0.33 9 -0.66 9 -1 9 C-1 6.36 -1 3.72 -1 1 C-1.66 1 -2.32 1 -3 1 C-3.33 1.66 -3.66 2.32 -4 3 C-6.31 3 -8.62 3 -11 3 C-8.21756596 -1.17365106 -4.53441502 -0.22300402 0 0 Z " fill="#4B586C" transform="translate(255,227)"/>
<path d="M0 0 C2.475 0.495 2.475 0.495 5 1 C5.66 2.98 6.32 4.96 7 7 C4.83125748 6.49396008 3.00032373 6.00016187 1 5 C0.375 2.4375 0.375 2.4375 0 0 Z " fill="#172C61" transform="translate(188,261)"/>
<path d="M0 0 C1.5 1.3125 1.5 1.3125 3 3 C3 3.99 3 4.98 3 6 C3.66 6 4.32 6 5 6 C5 6.66 5 7.32 5 8 C4.34 8 3.68 8 3 8 C2.67 8.66 2.34 9.32 2 10 C0 8 0 8 -0.1953125 6.0546875 C-0.13020833 4.03645833 -0.06510417 2.01822917 0 0 Z " fill="#38B2B6" transform="translate(97,207)"/>
<path d="M0 0 C2.05883923 4.11767846 2.96165128 7.54993405 4 12 C2.35 12.33 0.7 12.66 -1 13 C-1 12.01 -1 11.02 -1 10 C-0.34 10 0.32 10 1 10 C0.67 6.7 0.34 3.4 0 0 Z " fill="#DFF9F9" transform="translate(307,258)"/>
<path d="M0 0 C0.99 0 1.98 0 3 0 C3.33 0.99 3.66 1.98 4 3 C3.01 4.485 3.01 4.485 2 6 C-0.625 6.1875 -0.625 6.1875 -3 6 C-3 5.34 -3 4.68 -3 4 C-2.34 4 -1.68 4 -1 4 C-0.67 2.68 -0.34 1.36 0 0 Z " fill="#49B1B2" transform="translate(78,242)"/>
<path d="M0 0 C0.33 0 0.66 0 1 0 C0.67 5.28 0.34 10.56 0 16 C-0.33 15.34 -0.66 14.68 -1 14 C-1.66 14 -2.32 14 -3 14 C-3 12.35 -3 10.7 -3 9 C-2.67 9 -2.34 9 -2 9 C-1.34 6.03 -0.68 3.06 0 0 Z " fill="#3FB5B9" transform="translate(53,216)"/>
<path d="M0 0 C2.97 0.495 2.97 0.495 6 1 C6.33 2.65 6.66 4.3 7 6 C6.01 6 5.02 6 4 6 C0 1.54285714 0 1.54285714 0 0 Z " fill="#323B5B" transform="translate(182,260)"/>
<path d="M0 0 C1.32 0.33 2.64 0.66 4 1 C3.34 2.98 2.68 4.96 2 7 C1.01 7 0.02 7 -1 7 C-1.33 6.34 -1.66 5.68 -2 5 C-1.0625 2.375 -1.0625 2.375 0 0 Z " fill="#F1F3F8" transform="translate(179,234)"/>
<path d="M0 0 C1.65 0.33 3.3 0.66 5 1 C4.67 2.32 4.34 3.64 4 5 C2.35 5 0.7 5 -1 5 C-0.67 3.35 -0.34 1.7 0 0 Z " fill="#55B3A9" transform="translate(67,226)"/>
<path d="M0 0 C2.0625 0.4375 2.0625 0.4375 4 1 C4.33 2.98 4.66 4.96 5 7 C2.37812506 5.95125002 1.20628639 5.35068687 -0.25 2.875 C-0.4975 2.25625 -0.745 1.6375 -1 1 C-0.67 0.67 -0.34 0.34 0 0 Z " fill="#2BBABB" transform="translate(106,197)"/>
<path d="M0 0 C1.32 0 2.64 0 4 0 C3.67 1.32 3.34 2.64 3 4 C1.35 4.33 -0.3 4.66 -2 5 C-1.125 1.125 -1.125 1.125 0 0 Z " fill="#29BEC5" transform="translate(433,261)"/>
<path d="M0 0 C2.31 0 4.62 0 7 0 C5.63016497 3.16115776 5.0109362 3.9927092 2 6 C1.67 5.34 1.34 4.68 1 4 C1.33 3.01 1.66 2.02 2 1 C1.34 0.67 0.68 0.34 0 0 Z " fill="#EAFAFC" transform="translate(377,237)"/>
<path d="M0 0 C1.485 0.99 1.485 0.99 3 2 C3.51171875 5.0390625 3.51171875 5.0390625 3.6875 8.625 C3.75324219 9.81351563 3.81898438 11.00203125 3.88671875 12.2265625 C3.92410156 13.14179688 3.96148437 14.05703125 4 15 C3.34 15 2.68 15 2 15 C1.93941406 14.25234375 1.87882812 13.5046875 1.81640625 12.734375 C1.73261719 11.74953125 1.64882813 10.7646875 1.5625 9.75 C1.48128906 8.77546875 1.40007812 7.8009375 1.31640625 6.796875 C1.04925416 4.43538247 0.64628032 2.28098935 0 0 Z " fill="#35B4B9" transform="translate(269,224)"/>
<path d="M0 0 C0.66 0 1.32 0 2 0 C1.01 3.96 0.02 7.92 -1 12 C-1.33 12 -1.66 12 -2 12 C-2.28571429 3.42857143 -2.28571429 3.42857143 0 0 Z " fill="#5AB2BA" transform="translate(296,228)"/>
<path d="M0 0 C3.3 0 6.6 0 10 0 C9.67 2.97 9.34 5.94 9 9 C8.67 9 8.34 9 8 9 C7.67 6.69 7.34 4.38 7 2 C4.69 2 2.38 2 0 2 C0 1.34 0 0.68 0 0 Z " fill="#5FACB0" transform="translate(328,212)"/>
<path d="M0 0 C0.99 0.33 1.98 0.66 3 1 C2.67 1.99 2.34 2.98 2 4 C1.77820215 5.89212737 1.59385985 7.78884472 1.4375 9.6875 C1.31181641 11.17830078 1.31181641 11.17830078 1.18359375 12.69921875 C1.12300781 13.45847656 1.06242187 14.21773437 1 15 C0.67 15 0.34 15 0 15 C-0.19448477 12.87562788 -0.38038289 10.75046809 -0.5625 8.625 C-0.66691406 7.44164062 -0.77132813 6.25828125 -0.87890625 5.0390625 C-1 2 -1 2 0 0 Z " fill="#C8EDED" transform="translate(402,238)"/>
<path d="M0 0 C0 3.3 0 6.6 0 10 C-2 8 -2 8 -2.125 4.875 C-2.08375 3.92625 -2.0425 2.9775 -2 2 C-2.99 1.67 -3.98 1.34 -5 1 C-3 0 -3 0 0 0 Z " fill="#DAFBFC" transform="translate(78,207)"/>
<path d="M0 0 C0.33 0 0.66 0 1 0 C1 2.64 1 5.28 1 8 C1.66 8 2.32 8 3 8 C2.67 9.65 2.34 11.3 2 13 C1.34 13 0.68 13 0 13 C0 8.71 0 4.42 0 0 Z " fill="#16244F" transform="translate(213,244)"/>
<path d="M0 0 C0.66 0.99 1.32 1.98 2 3 C0.625 4.5 0.625 4.5 -1 6 C-1.66 6 -2.32 6 -3 6 C-3 6.66 -3 7.32 -3 8 C-3.66 8 -4.32 8 -5 8 C-3.62845496 5.04590299 -2.01136276 2.55991624 0 0 Z " fill="#DCF8F7" transform="translate(114,248)"/>
<path d="M0 0 C0.66 0 1.32 0 2 0 C2.8638129 1.45264038 3.71580454 2.9123163 4.5625 4.375 C5.27599609 5.59316406 5.27599609 5.59316406 6.00390625 6.8359375 C6.33261719 7.55007812 6.66132812 8.26421875 7 9 C6.67 9.66 6.34 10.32 6 11 C2.90407165 7.4912812 1.25805377 4.50802601 0 0 Z " fill="#56B6B5" transform="translate(48,237)"/>
<path d="M0 0 C0.66 0.66 1.32 1.32 2 2 C-0.85306797 4.32472205 -3.54074837 5.7508258 -7 7 C-6.875 5.1875 -6.875 5.1875 -6 3 C-2.9375 1.25 -2.9375 1.25 0 0 Z " fill="#D0F1F5" transform="translate(105,239)"/>
<path d="M0 0 C0.33 0 0.66 0 1 0 C1 2.64 1 5.28 1 8 C-1.97 8 -4.94 8 -8 8 C-7.67 7.34 -7.34 6.68 -7 6 C-5.35 6 -3.7 6 -2 6 C-1.34 4.02 -0.68 2.04 0 0 Z " fill="#48ACA8" transform="translate(353,262)"/>
<path d="M0 0 C2.5654594 2.5654594 2.54046087 4.47686668 3 8 C1.35 7.67 -0.3 7.34 -2 7 C-1.34 4.69 -0.68 2.38 0 0 Z " fill="#C9F5F8" transform="translate(298,228)"/>
<path d="M0 0 C0.66 0 1.32 0 2 0 C2 2.31 2 4.62 2 7 C0.68 6.67 -0.64 6.34 -2 6 C-1.34 4.02 -0.68 2.04 0 0 Z " fill="#39B4BA" transform="translate(104,224)"/>
<path d="M0 0 C2.5654594 2.5654594 2.54046087 4.47686668 3 8 C1.68 7.34 0.36 6.68 -1 6 C-1 5.34 -1 4.68 -1 4 C-1.99 3.67 -2.98 3.34 -4 3 C-2.68 3 -1.36 3 0 3 C0 2.01 0 1.02 0 0 Z " fill="#E1F8F4" transform="translate(105,208)"/>
<path d="M0 0 C0.33 0.99 0.66 1.98 1 3 C-0.4375 5.1875 -0.4375 5.1875 -2 7 C-2.99 6.34 -3.98 5.68 -5 5 C-4.67 4.01 -4.34 3.02 -4 2 C-2.68 2 -1.36 2 0 2 C0 1.34 0 0.68 0 0 Z " fill="#FCFDF5" transform="translate(106,204)"/>
<path d="M0 0 C4.29 0.33 8.58 0.66 13 1 C11.515 2.485 11.515 2.485 10 4 C9.34 4 8.68 4 8 4 C8 3.34 8 2.68 8 2 C5.69 2 3.38 2 1 2 C0.67 1.34 0.34 0.68 0 0 Z " fill="#EAFEFD" transform="translate(66,270)"/>
<path d="M0 0 C1.98 0 3.96 0 6 0 C6 0.99 6 1.98 6 3 C4.02 3 2.04 3 0 3 C0 2.01 0 1.02 0 0 Z " fill="#25BDC4" transform="translate(384,264)"/>
<path d="M0 0 C0.66 0 1.32 0 2 0 C1.42906864 3.3114019 0.45395174 4.75054423 -2 7 C-2.33 7.66 -2.66 8.32 -3 9 C-3.66 8.67 -4.32 8.34 -5 8 C-4.21718695 6.66144944 -3.42348123 5.32926356 -2.625 4 C-2.18414062 3.2575 -1.74328125 2.515 -1.2890625 1.75 C-0.86367187 1.1725 -0.43828125 0.595 0 0 Z " fill="#5AB5B4" transform="translate(104,249)"/>
<path d="M0 0 C0.99 0 1.98 0 3 0 C3 2.97 3 5.94 3 9 C0.23776722 6.23776722 0.42143709 3.79293383 0 0 Z " fill="#4DB5B7" transform="translate(268,247)"/>
<path d="M0 0 C0.99 0 1.98 0 3 0 C1.80100302 3.0831351 0.52299523 6.06279492 -1 9 C-2.0326802 6.21176345 -2.04509293 5.1322726 -1.0625 2.25 C-0.711875 1.5075 -0.36125 0.765 0 0 Z " fill="#5BB4B3" transform="translate(116,239)"/>
<path d="M0 0 C0.99 0.33 1.98 0.66 3 1 C3 3.31 3 5.62 3 8 C2.01 8 1.02 8 0 8 C0 5.36 0 2.72 0 0 Z " fill="#22BDBC" transform="translate(267,232)"/>
<path d="M0 0 C1.32 0.33 2.64 0.66 4 1 C2.50260417 2.23697917 1.00520833 3.47395833 -0.4921875 4.7109375 C-1.71051161 5.75250992 -2.86660097 6.86660097 -4 8 C-3.67 6.35 -3.34 4.7 -3 3 C-2.34 3 -1.68 3 -1 3 C-0.67 2.01 -0.34 1.02 0 0 Z " fill="#E0F6F9" transform="translate(409,229)"/>
<path d="M0 0 C1.32 0.33 2.64 0.66 4 1 C4 2.32 4 3.64 4 5 C2.68 5 1.36 5 0 5 C0 3.35 0 1.7 0 0 Z " fill="#37B7BA" transform="translate(63,225)"/>
<path d="M0 0 C0.66 0 1.32 0 2 0 C2 0.66 2 1.32 2 2 C2.66 2.33 3.32 2.66 4 3 C4 3.99 4 4.98 4 6 C2.68 5.67 1.36 5.34 0 5 C0 3.35 0 1.7 0 0 Z " fill="#2DBDCA" transform="translate(346,213)"/>
<path d="M0 0 C0.99 0 1.98 0 3 0 C4.75 2.25 4.75 2.25 6 5 C5.6875 7.3125 5.6875 7.3125 5 9 C2 4.25 2 4.25 2 2 C1.34 2 0.68 2 0 2 C0 1.34 0 0.68 0 0 Z " fill="#D8F7F8" transform="translate(112,198)"/>
<path d="M0 0 C3.465 1.98 3.465 1.98 7 4 C4 6 4 6 2 6 C1.34 4.02 0.68 2.04 0 0 Z " fill="#DAF8F8" transform="translate(407,264)"/>
<path d="M0 0 C0.66 0.66 1.32 1.32 2 2 C1.8125 4.0625 1.8125 4.0625 1 6 C0.01 6.33 -0.98 6.66 -2 7 C-1.125 1.125 -1.125 1.125 0 0 Z " fill="#26C0C5" transform="translate(315,256)"/>
<path d="M0 0 C0.33 0 0.66 0 1 0 C2.125 5.75 2.125 5.75 1 8 C-1.0625 8.625 -1.0625 8.625 -3 9 C-3 8.34 -3 7.68 -3 7 C-2.34 7 -1.68 7 -1 7 C-0.67 4.69 -0.34 2.38 0 0 Z " fill="#46B7B9" transform="translate(282,248)"/>
<path d="M0 0 C0.66 0.99 1.32 1.98 2 3 C1.01 3.99 0.02 4.98 -1 6 C-1.99 5.67 -2.98 5.34 -4 5 C-4 4.34 -4 3.68 -4 3 C-2 1.375 -2 1.375 0 0 Z " fill="#27BABD" transform="translate(387,241)"/>
<path d="M0 0 C0.99 0.33 1.98 0.66 3 1 C2.01 1.495 2.01 1.495 1 2 C0.505 2.845625 0.01 3.69125 -0.5 4.5625 C-0.995 5.366875 -1.49 6.17125 -2 7 C-2.66 7 -3.32 7 -4 7 C-2.92598892 4.08482708 -2.22189824 2.22189824 0 0 Z " fill="#65B5BC" transform="translate(64,212)"/>
<path d="M0 0 C1.32 0.33 2.64 0.66 4 1 C4 2.98 4 4.96 4 7 C3.67 6.34 3.34 5.68 3 5 C2.34 5 1.68 5 1 5 C0.67 3.35 0.34 1.7 0 0 Z " fill="#26B9BD" transform="translate(111,204)"/>
<path d="M0 0 C-2.97 1.32 -5.94 2.64 -9 4 C-9.33 3.01 -9.66 2.02 -10 1 C-5.8922935 -0.58706842 -4.40767604 -1.10191901 0 0 Z " fill="#55B1B5" transform="translate(76,195)"/>
<path d="M0 0 C0.66 0 1.32 0 2 0 C2 1.98 2 3.96 2 6 C1.01 6 0.02 6 -1 6 C-1.33 4.68 -1.66 3.36 -2 2 C-1.34 2 -0.68 2 0 2 C0 1.34 0 0.68 0 0 Z " fill="#28BCB6" transform="translate(394,229)"/>
<path d="M0 0 C0.33 0 0.66 0 1 0 C1 2.64 1 5.28 1 8 C0.01 8.495 0.01 8.495 -1 9 C-1.625 5.625 -1.625 5.625 -2 2 C-1.34 1.34 -0.68 0.68 0 0 Z " fill="#4FAAA7" transform="translate(107,218)"/>
<path d="M0 0 C1.65 0 3.3 0 5 0 C5.66 1.32 6.32 2.64 7 4 C4.69 3.34 2.38 2.68 0 2 C0 1.34 0 0.68 0 0 Z " fill="#D9FAFA" transform="translate(96,187)"/>
</svg>
